<svg xmlns="http://www.w3.org/2000/svg" width="1200" height="700" viewBox="0 0 1200 700">
<rect width="100%" height="100%" fill="#ffffff"/>
<text x="90" y="35" font-family="Arial" font-size="24" font-weight="700">Portfolio Drawdowns</text>
<line x1="90" y1="620.0" x2="1170" y2="620.0" stroke="#e2e8f0"/>
<text x="80" y="625.0" text-anchor="end" font-family="Arial" font-size="13" fill="#475569">-35%</text>
<line x1="90" y1="510.0" x2="1170" y2="510.0" stroke="#e2e8f0"/>
<text x="80" y="515.0" text-anchor="end" font-family="Arial" font-size="13" fill="#475569">-28%</text>
<line x1="90" y1="400.0" x2="1170" y2="400.0" stroke="#e2e8f0"/>
<text x="80" y="405.0" text-anchor="end" font-family="Arial" font-size="13" fill="#475569">-21%</text>
<line x1="90" y1="290.0" x2="1170" y2="290.0" stroke="#e2e8f0"/>
<text x="80" y="295.0" text-anchor="end" font-family="Arial" font-size="13" fill="#475569">-13%</text>
<line x1="90" y1="180.0" x2="1170" y2="180.0" stroke="#e2e8f0"/>
<text x="80" y="185.0" text-anchor="end" font-family="Arial" font-size="13" fill="#475569">-6%</text>
<line x1="90" y1="70.0" x2="1170" y2="70.0" stroke="#e2e8f0"/>
<text x="80" y="75.0" text-anchor="end" font-family="Arial" font-size="13" fill="#475569">2%</text>
<polyline fill="none" stroke="#2563eb" stroke-width="2" points="90.0,95.0 91.4,155.3 92.7,103.6 94.1,113.0 95.4,95.0 96.8,95.0 98.1,95.0 99.5,102.2 100.8,100.2 102.2,98.4 103.5,95.0 104.9,95.0 106.2,131.5 107.6,223.4 108.9,191.4 110.3,249.6 111.6,268.8 113.0,279.9 114.3,214.4 115.7,237.7 117.0,303.2 118.4,280.0 119.7,236.3 121.1,239.0 122.4,228.9 123.8,197.5 125.1,249.2 126.5,262.6 127.8,270.8 129.2,221.5 130.6,199.1 131.9,173.4 133.3,167.8 134.6,150.9 136.0,139.0 137.3,142.4 138.7,118.0 140.0,108.7 141.4,102.5 142.7,149.4 144.1,125.5 145.4,96.9 146.8,95.0 148.1,95.0 149.5,96.5 150.8,95.0 152.2,102.7 153.5,95.0 154.9,95.0 156.2,97.8 157.6,98.4 158.9,95.0 160.3,134.7 161.6,117.7 163.0,135.7 164.3,163.5 165.7,124.3 167.0,103.8 168.4,107.0 169.7,132.5 171.1,95.0 172.5,102.6 173.8,101.1 175.2,130.4 176.5,138.9 177.9,146.1 179.2,171.4 180.6,194.2 181.9,176.5 183.3,115.1 184.6,136.4 186.0,151.2 187.3,116.0 188.7,171.2 190.0,351.7 191.4,271.6 192.7,306.0 194.1,248.8 195.4,264.0 196.8,274.0 198.1,338.7 199.5,303.7 200.8,298.9 202.2,254.7 203.5,242.1 204.9,165.9 206.2,200.2 207.6,187.2 208.9,238.6 210.3,263.5 211.7,191.6 213.0,226.8 214.4,208.6 215.7,198.6 217.1,163.1 218.4,146.9 219.8,123.7 221.1,126.3 222.5,96.0 223.8,95.0 225.2,95.0 226.5,100.8 227.9,117.0 229.2,96.6 230.6,101.7 231.9,106.9 233.3,116.4 234.6,144.1 236.0,135.7 237.3,110.2 238.7,145.6 240.0,160.1 241.4,198.2 242.7,180.1 244.1,228.5 245.4,188.3 246.8,151.8 248.1,178.4 249.5,140.4 250.9,174.9 252.2,130.5 253.6,146.9 254.9,113.5 256.3,97.8 257.6,95.0 259.0,102.1 260.3,105.7 261.7,99.3 263.0,101.2 264.4,118.9 265.7,114.8 267.1,117.9 268.4,104.3 269.8,150.1 271.1,144.6 272.5,179.0 273.8,197.1 275.2,149.8 276.5,147.7 277.9,125.6 279.2,106.0 280.6,132.5 281.9,98.4 283.3,95.1 284.6,95.0 286.0,96.8 287.3,111.7 288.7,95.3 290.1,95.0 291.4,108.0 292.8,95.0 294.1,96.2 295.5,98.3 296.8,95.0 298.2,110.7 299.5,98.6 300.9,129.6 302.2,103.8 303.6,95.0 304.9,95.0 306.3,95.1 307.6,102.7 309.0,127.0 310.3,131.1 311.7,107.7 313.0,149.8 314.4,139.7 315.7,95.0 317.1,95.0 318.4,100.0 319.8,95.0 321.1,109.2 322.5,139.4 323.8,132.6 325.2,158.3 326.5,113.0 327.9,95.0 329.2,118.1 330.6,119.7 332.0,153.0 333.3,96.2 334.7,102.1 336.0,102.4 337.4,95.0 338.7,95.0 340.1,108.0 341.4,96.0 342.8,96.5 344.1,121.9 345.5,95.0 346.8,95.3 348.2,104.4 349.5,95.2 350.9,110.3 352.2,138.8 353.6,152.9 354.9,100.4 356.3,95.0 357.6,105.4 359.0,95.8 360.3,110.2 361.7,110.8 363.0,95.0 364.4,124.7 365.7,131.7 367.1,106.2 368.4,99.5 369.8,104.4 371.2,115.0 372.5,97.9 373.9,95.0 375.2,95.0 376.6,104.9 377.9,95.5 379.3,96.7 380.6,109.7 382.0,102.3 383.3,95.0 384.7,107.5 386.0,144.1 387.4,123.4 388.7,95.0 390.1,95.6 391.4,95.0 392.8,109.6 394.1,96.3 395.5,117.0 396.8,127.2 398.2,194.4 399.5,173.1 400.9,129.9 402.2,95.0 403.6,95.0 404.9,95.0 406.3,96.1 407.6,95.0 409.0,129.5 410.4,139.3 411.7,95.0 413.1,144.7 414.4,138.1 415.8,142.3 417.1,137.5 418.5,122.6 419.8,107.7 421.2,96.1 422.5,98.0 423.9,105.7 425.2,129.2 426.6,99.5 427.9,132.3 429.3,117.6 430.6,108.8 432.0,103.4 433.3,96.5 434.7,114.3 436.0,106.7 437.4,95.5 438.7,100.6 440.1,106.0 441.4,108.0 442.8,100.0 444.1,113.2 445.5,131.0 446.8,129.8 448.2,95.0 449.5,135.5 450.9,114.5 452.3,109.1 453.6,109.0 455.0,271.6 456.3,240.2 457.7,219.2 459.0,181.6 460.4,220.4 461.7,234.3 463.1,167.1 464.4,159.1 465.8,138.7 467.1,113.7 468.5,104.4 469.8,157.8 471.2,110.3 472.5,114.6 473.9,117.0 475.2,155.2 476.6,142.5 477.9,125.4 479.3,209.2 480.6,224.1 482.0,234.1 483.3,211.5 484.7,270.1 486.0,239.3 487.4,221.4 488.7,180.6 490.1,178.5 491.5,143.7 492.8,137.2 494.2,120.8 495.5,131.9 496.9,103.2 498.2,103.0 499.6,121.6 500.9,125.9 502.3,132.7 503.6,127.5 505.0,97.8 506.3,95.0 507.7,125.2 509.0,114.9 510.4,151.7 511.7,106.3 513.1,95.0 514.4,100.6 515.8,98.2 517.1,100.7 518.5,95.0 519.8,98.7 521.2,107.2 522.5,99.9 523.9,113.6 525.2,126.1 526.6,111.5 527.9,117.5 529.3,126.0 530.7,124.1 532.0,121.0 533.4,142.5 534.7,105.9 536.1,97.8 537.4,95.0 538.8,108.1 540.1,95.0 541.5,104.1 542.8,99.7 544.2,102.8 545.5,99.9 546.9,98.0 548.2,96.6 549.6,106.6 550.9,95.0 552.3,96.3 553.6,95.0 555.0,107.8 556.3,107.2 557.7,107.2 559.0,126.8 560.4,116.2 561.7,116.1 563.1,127.9 564.4,97.1 565.8,96.8 567.1,95.0 568.5,122.6 569.8,95.0 571.2,95.0 572.6,99.6 573.9,99.4 575.3,104.3 576.6,109.8 578.0,110.0 579.3,95.0 580.7,95.0 582.0,95.7 583.4,98.6 584.7,100.6 586.1,114.8 587.4,106.1 588.8,101.0 590.1,95.5 591.5,98.7 592.8,95.0 594.2,96.7 595.5,95.4 596.9,95.0 598.2,100.5 599.6,95.0 600.9,99.5 602.3,99.6 603.6,95.0 605.0,104.9 606.3,95.2 607.7,101.5 609.0,96.8 610.4,95.0 611.8,95.0 613.1,95.0 614.5,119.9 615.8,185.3 617.2,201.5 618.5,180.5 619.9,192.7 621.2,159.6 622.6,154.9 623.9,208.1 625.3,210.8 626.6,222.0 628.0,189.1 629.3,193.0 630.7,203.7 632.0,191.2 633.4,159.7 634.7,161.6 636.1,161.6 637.4,136.8 638.8,133.5 640.1,137.7 641.5,164.3 642.8,140.6 644.2,118.9 645.5,118.4 646.9,109.3 648.2,95.0 649.6,113.1 651.0,95.0 652.3,95.0 653.7,103.5 655.0,107.4 656.4,96.3 657.7,107.1 659.1,97.7 660.4,165.8 661.8,154.9 663.1,207.5 664.5,190.1 665.8,154.7 667.2,192.6 668.5,242.2 669.9,160.7 671.2,237.7 672.6,283.6 673.9,321.5 675.3,331.6 676.6,256.2 678.0,218.0 679.3,231.8 680.7,189.9 682.0,196.8 683.4,159.9 684.7,153.0 686.1,162.5 687.4,142.1 688.8,134.7 690.2,144.4 691.5,105.8 692.9,100.5 694.2,95.7 695.6,95.0 696.9,95.0 698.3,161.4 699.6,145.8 701.0,165.0 702.3,163.1 703.7,120.9 705.0,103.2 706.4,114.9 707.7,95.0 709.1,95.0 710.4,104.5 711.8,102.1 713.1,141.1 714.5,146.0 715.8,159.6 717.2,179.3 718.5,141.9 719.9,114.1 721.2,100.4 722.6,118.4 723.9,131.4 725.3,154.6 726.6,106.0 728.0,98.7 729.3,95.0 730.7,96.3 732.1,95.0 733.4,100.9 734.8,100.5 736.1,97.9 737.5,95.0 738.8,95.0 740.2,103.5 741.5,96.9 742.9,95.0 744.2,96.0 745.6,114.1 746.9,95.0 748.3,95.0 749.6,164.8 751.0,223.2 752.3,376.0 753.7,526.7 755.0,595.0 756.4,441.6 757.7,409.0 759.1,353.4 760.4,347.5 761.8,285.2 763.1,309.6 764.5,321.6 765.8,277.9 767.2,236.3 768.5,170.0 769.9,224.2 771.3,202.5 772.6,229.7 774.0,188.5 775.3,165.7 776.7,130.6 778.0,138.3 779.4,107.3 780.7,95.0 782.1,101.2 783.4,95.0 784.8,146.0 786.1,193.0 787.5,201.7 788.8,209.6 790.2,188.4 791.5,111.0 792.9,154.4 794.2,165.3 795.6,203.5 796.9,102.1 798.3,103.0 799.6,95.0 801.0,95.0 802.3,108.3 803.7,95.0 805.0,107.4 806.4,115.2 807.7,105.0 809.1,105.2 810.5,97.3 811.8,106.0 813.2,96.6 814.5,102.3 815.9,133.9 817.2,155.2 818.6,95.0 819.9,119.3 821.3,95.0 822.6,95.0 824.0,95.0 825.3,102.3 826.7,95.0 828.0,110.7 829.4,122.8 830.7,130.8 832.1,108.6 833.4,101.3 834.8,95.0 836.1,106.5 837.5,95.0 838.8,95.0 840.2,95.0 841.5,136.1 842.9,95.0 844.2,106.5 845.6,96.2 846.9,95.0 848.3,95.0 849.6,97.2 851.0,102.5 852.4,112.4 853.7,140.6 855.1,151.8 856.4,137.9 857.8,125.3 859.1,95.0 860.5,95.0 861.8,95.0 863.2,100.2 864.5,97.7 865.9,111.2 867.2,129.5 868.6,108.1 869.9,114.1 871.3,95.0 872.6,124.0 874.0,115.8 875.3,191.1 876.7,239.3 878.0,185.1 879.4,210.6 880.7,230.0 882.1,222.5 883.4,275.9 884.8,255.0 886.1,178.0 887.5,140.7 888.8,173.5 890.2,213.1 891.6,213.9 892.9,245.8 894.3,289.4 895.6,356.2 897.0,365.2 898.3,284.9 899.7,295.7 901.0,410.2 902.4,405.0 903.7,387.5 905.1,379.4 906.4,396.1 907.8,330.8 909.1,308.0 910.5,282.7 911.8,264.5 913.2,257.8 914.5,310.4 915.9,351.3 917.2,292.7 918.6,357.8 919.9,436.8 921.3,391.0 922.6,454.6 924.0,412.5 925.3,369.2 926.7,370.5 928.0,403.1 929.4,336.1 930.8,314.3 932.1,298.7 933.5,333.7 934.8,368.9 936.2,370.0 937.5,376.6 938.9,345.8 940.2,342.9 941.6,301.1 942.9,263.2 944.3,293.7 945.6,290.0 947.0,327.5 948.3,302.0 949.7,362.3 951.0,331.1 952.4,322.4 953.7,276.6 955.1,280.5 956.4,266.5 957.8,297.5 959.1,285.9 960.5,270.6 961.8,263.0 963.2,264.9 964.5,222.9 965.9,216.6 967.2,181.1 968.6,206.6 969.9,169.5 971.3,160.3 972.7,131.1 974.0,130.1 975.4,147.2 976.7,161.2 978.1,191.2 979.4,189.3 980.8,146.5 982.1,161.9 983.5,163.7 984.8,199.3 986.2,215.0 987.5,199.1 988.9,187.1 990.2,236.8 991.6,244.0 992.9,184.3 994.3,146.7 995.6,132.2 997.0,127.9 998.3,127.4 999.7,95.0 1001.0,101.7 1002.4,99.3 1003.7,101.5 1005.1,100.5 1006.4,95.0 1007.8,120.3 1009.1,95.0 1010.5,102.8 1011.9,95.0 1013.2,95.0 1014.6,103.9 1015.9,110.4 1017.3,97.8 1018.6,97.9 1020.0,105.9 1021.3,150.7 1022.7,144.7 1024.0,155.1 1025.4,112.1 1026.7,95.0 1028.1,99.3 1029.4,119.4 1030.8,95.0 1032.1,95.0 1033.5,101.0 1034.8,98.8 1036.2,95.0 1037.5,95.0 1038.9,124.1 1040.2,155.0 1041.6,216.3 1042.9,150.4 1044.3,106.1 1045.6,112.2 1047.0,135.0 1048.3,110.1 1049.7,97.6 1051.1,97.2 1052.4,97.0 1053.8,95.0 1055.1,95.0 1056.5,104.5 1057.8,132.5 1059.2,95.0 1060.5,121.3 1061.9,98.0 1063.2,95.0 1064.6,95.9 1065.9,147.5 1067.3,105.8 1068.6,128.8 1070.0,152.7 1071.3,95.0 1072.7,114.3 1074.0,108.4 1075.4,110.5 1076.7,101.2 1078.1,140.4 1079.4,184.5 1080.8,216.3 1082.1,209.3 1083.5,229.5 1084.8,354.0 1086.2,269.7 1087.5,298.5 1088.9,232.8 1090.3,221.9 1091.6,152.0 1093.0,163.5 1094.3,146.1 1095.7,138.8 1097.0,112.8 1098.4,131.5 1099.7,95.0 1101.1,106.9 1102.4,103.7 1103.8,95.0 1105.1,99.3 1106.5,105.1 1107.8,95.0 1109.2,110.7 1110.5,95.0 1111.9,95.0 1113.2,95.5 1114.6,95.0 1115.9,106.2 1117.3,95.0 1118.6,139.3 1120.0,99.0 1121.3,95.0 1122.7,103.7 1124.0,107.8 1125.4,141.9 1126.7,135.3 1128.1,102.6 1129.4,95.0 1130.8,133.2 1132.2,95.0 1133.5,110.5 1134.9,95.0 1136.2,132.5 1137.6,95.0 1138.9,107.7 1140.3,102.2 1141.6,118.5 1143.0,108.2 1144.3,125.2 1145.7,157.8 1147.0,171.1 1148.4,198.7 1149.7,169.1 1151.1,111.0 1152.4,98.0 1153.8,95.0 1155.1,100.4 1156.5,97.2 1157.8,123.6 1159.2,95.3 1160.5,105.4 1161.9,161.7 1163.2,116.3 1164.6,151.0 1165.9,107.4 1167.3,111.5 1168.6,125.4 1170.0,127.8"/>
<polyline fill="none" stroke="#ef4444" stroke-width="2" points="90.0,95.0 91.4,149.6 92.7,99.8 94.1,107.6 95.4,95.0 96.8,95.0 98.1,95.0 99.5,114.0 100.8,104.1 102.2,96.6 103.5,96.7 104.9,95.0 106.2,107.4 107.6,172.3 108.9,145.0 110.3,185.7 111.6,187.9 113.0,197.2 114.3,141.8 115.7,152.4 117.0,188.2 118.4,174.7 119.7,144.8 121.1,137.6 122.4,130.2 123.8,102.6 125.1,137.1 126.5,130.7 127.8,130.3 129.2,95.0 130.6,95.0 131.9,95.0 133.3,95.0 134.6,95.0 136.0,95.0 137.3,116.8 138.7,100.5 140.0,95.0 141.4,106.3 142.7,164.0 144.1,139.9 145.4,122.5 146.8,124.4 148.1,121.0 149.5,104.1 150.8,95.0 152.2,109.1 153.5,95.0 154.9,102.9 156.2,96.7 157.6,96.3 158.9,95.0 160.3,111.4 161.6,95.3 163.0,113.5 164.3,122.5 165.7,99.5 167.0,95.0 168.4,97.6 169.7,106.2 171.1,95.0 172.5,107.4 173.8,111.3 175.2,137.2 176.5,136.4 177.9,125.7 179.2,136.1 180.6,159.7 181.9,151.6 183.3,124.8 184.6,117.9 186.0,123.0 187.3,102.1 188.7,118.9 190.0,232.6 191.4,159.6 192.7,171.4 194.1,140.0 195.4,142.0 196.8,159.8 198.1,211.4 199.5,209.6 200.8,204.4 202.2,174.3 203.5,181.1 204.9,102.8 206.2,117.3 207.6,119.5 208.9,157.2 210.3,176.3 211.7,133.9 213.0,168.6 214.4,151.2 215.7,155.0 217.1,130.3 218.4,113.8 219.8,95.0 221.1,101.5 222.5,95.6 223.8,96.8 225.2,95.4 226.5,109.4 227.9,123.5 229.2,114.9 230.6,110.7 231.9,105.3 233.3,118.8 234.6,124.0 236.0,118.0 237.3,100.4 238.7,126.7 240.0,140.8 241.4,163.7 242.7,164.8 244.1,182.0 245.4,166.5 246.8,138.9 248.1,157.8 249.5,114.2 250.9,133.6 252.2,104.8 253.6,116.1 254.9,98.3 256.3,95.0 257.6,95.0 259.0,97.6 260.3,95.0 261.7,98.6 263.0,102.2 264.4,115.2 265.7,108.8 267.1,120.9 268.4,110.5 269.8,141.7 271.1,139.3 272.5,144.9 273.8,159.3 275.2,127.7 276.5,123.1 277.9,114.1 279.2,113.4 280.6,116.8 281.9,104.5 283.3,96.6 284.6,95.0 286.0,100.8 287.3,102.6 288.7,97.5 290.1,95.6 291.4,107.4 292.8,99.6 294.1,100.1 295.5,97.3 296.8,95.0 298.2,99.3 299.5,102.3 300.9,126.1 302.2,103.0 303.6,95.0 304.9,107.9 306.3,98.5 307.6,122.1 309.0,140.8 310.3,155.9 311.7,141.3 313.0,203.2 314.4,184.5 315.7,149.3 317.1,141.7 318.4,137.5 319.8,140.4 321.1,143.4 322.5,160.2 323.8,150.5 325.2,164.6 326.5,140.5 327.9,136.6 329.2,122.3 330.6,124.8 332.0,136.7 333.3,107.6 334.7,103.2 336.0,101.3 337.4,117.7 338.7,129.7 340.1,135.6 341.4,115.0 342.8,122.7 344.1,138.1 345.5,122.8 346.8,113.3 348.2,121.2 349.5,105.0 350.9,100.7 352.2,118.8 353.6,121.1 354.9,95.0 356.3,95.0 357.6,96.3 359.0,107.0 360.3,109.5 361.7,117.5 363.0,101.8 364.4,102.0 365.7,108.4 367.1,99.2 368.4,96.3 369.8,100.9 371.2,100.2 372.5,95.0 373.9,98.3 375.2,95.0 376.6,96.0 377.9,97.1 379.3,95.0 380.6,103.4 382.0,105.7 383.3,95.0 384.7,104.4 386.0,121.9 387.4,106.2 388.7,96.9 390.1,95.0 391.4,100.6 392.8,132.9 394.1,133.5 395.5,145.4 396.8,158.5 398.2,171.2 399.5,156.6 400.9,144.6 402.2,129.7 403.6,133.8 404.9,126.7 406.3,114.6 407.6,122.0 409.0,134.3 410.4,145.6 411.7,131.6 413.1,142.6 414.4,129.7 415.8,113.4 417.1,100.3 418.5,95.0 419.8,117.1 421.2,106.4 422.5,99.6 423.9,110.5 425.2,130.8 426.6,95.0 427.9,114.2 429.3,95.0 430.6,99.1 432.0,101.8 433.3,95.8 434.7,126.8 436.0,127.1 437.4,117.7 438.7,120.1 440.1,136.4 441.4,140.0 442.8,132.4 444.1,143.3 445.5,154.5 446.8,159.4 448.2,152.4 449.5,176.9 450.9,166.9 452.3,164.3 453.6,169.5 455.0,251.2 456.3,237.7 457.7,230.7 459.0,208.3 460.4,227.2 461.7,232.0 463.1,183.2 464.4,171.6 465.8,168.4 467.1,174.5 468.5,173.4 469.8,217.8 471.2,191.7 472.5,193.9 473.9,202.9 475.2,230.0 476.6,218.9 477.9,214.2 479.3,253.4 480.6,272.3 482.0,272.0 483.3,250.2 484.7,276.1 486.0,266.0 487.4,248.3 488.7,222.5 490.1,207.0 491.5,185.7 492.8,187.1 494.2,167.1 495.5,179.2 496.9,155.0 498.2,151.7 499.6,148.4 500.9,155.8 502.3,158.6 503.6,164.2 505.0,146.2 506.3,119.3 507.7,134.8 509.0,124.3 510.4,129.2 511.7,99.1 513.1,95.0 514.4,97.5 515.8,95.0 517.1,101.8 518.5,95.0 519.8,101.0 521.2,111.9 522.5,105.5 523.9,120.9 525.2,131.0 526.6,107.7 527.9,122.4 529.3,134.6 530.7,128.5 532.0,125.3 533.4,149.7 534.7,155.5 536.1,167.3 537.4,160.9 538.8,170.3 540.1,139.3 541.5,153.4 542.8,151.2 544.2,136.7 545.5,121.5 546.9,117.1 548.2,109.6 549.6,110.1 550.9,97.0 552.3,95.0 553.6,95.0 555.0,108.8 556.3,125.5 557.7,104.0 559.0,104.9 560.4,95.4 561.7,95.0 563.1,101.2 564.4,95.1 565.8,102.7 567.1,101.0 568.5,100.8 569.8,95.4 571.2,95.0 572.6,103.3 573.9,104.5 575.3,100.1 576.6,106.6 578.0,112.5 579.3,95.0 580.7,97.0 582.0,95.0 583.4,99.4 584.7,102.5 586.1,98.3 587.4,95.0 588.8,95.0 590.1,95.7 591.5,100.8 592.8,99.1 594.2,98.5 595.5,95.0 596.9,102.3 598.2,101.3 599.6,95.0 600.9,104.1 602.3,98.7 603.6,95.0 605.0,114.6 606.3,103.8 607.7,106.2 609.0,95.0 610.4,95.0 611.8,95.0 613.1,95.0 614.5,116.1 615.8,157.1 617.2,173.8 618.5,164.3 619.9,167.5 621.2,148.7 622.6,140.8 623.9,162.2 625.3,155.1 626.6,162.1 628.0,145.7 629.3,156.5 630.7,156.3 632.0,146.0 633.4,131.3 634.7,137.8 636.1,128.2 637.4,119.6 638.8,123.2 640.1,131.9 641.5,143.6 642.8,124.3 644.2,123.4 645.5,129.0 646.9,129.1 648.2,125.1 649.6,138.1 651.0,128.7 652.3,110.2 653.7,121.2 655.0,130.6 656.4,127.3 657.7,123.6 659.1,126.6 660.4,172.6 661.8,162.4 663.1,187.0 664.5,178.6 665.8,171.4 667.2,189.1 668.5,211.3 669.9,168.7 671.2,199.4 672.6,220.2 673.9,239.3 675.3,235.0 676.6,186.7 678.0,169.1 679.3,167.0 680.7,139.6 682.0,144.1 683.4,117.6 684.7,118.7 686.1,128.5 687.4,111.6 688.8,100.7 690.2,105.6 691.5,95.0 692.9,101.0 694.2,103.9 695.6,95.7 696.9,95.0 698.3,132.6 699.6,129.7 701.0,130.6 702.3,122.4 703.7,101.0 705.0,95.0 706.4,109.6 707.7,95.0 709.1,104.4 710.4,101.9 711.8,107.8 713.1,116.6 714.5,111.4 715.8,106.5 717.2,114.5 718.5,96.4 719.9,101.7 721.2,95.0 722.6,100.5 723.9,116.5 725.3,119.2 726.6,100.4 728.0,95.0 729.3,95.0 730.7,101.7 732.1,109.6 733.4,98.6 734.8,103.3 736.1,99.2 737.5,95.0 738.8,95.0 740.2,99.1 741.5,99.3 742.9,95.0 744.2,97.4 745.6,110.0 746.9,98.4 748.3,95.0 749.6,123.4 751.0,160.4 752.3,231.9 753.7,386.4 755.0,416.3 756.4,320.4 757.7,300.4 759.1,261.1 760.4,264.1 761.8,220.0 763.1,244.0 764.5,252.4 765.8,216.0 767.2,187.3 768.5,141.2 769.9,159.5 771.3,142.8 772.6,152.3 774.0,123.0 775.3,111.6 776.7,95.0 778.0,95.0 779.4,95.0 780.7,107.5 782.1,109.6 783.4,95.0 784.8,119.9 786.1,144.6 787.5,136.1 788.8,162.6 790.2,142.9 791.5,98.6 792.9,123.8 794.2,131.9 795.6,153.6 796.9,95.2 798.3,95.0 799.6,95.0 801.0,96.9 802.3,105.5 803.7,95.0 805.0,103.4 806.4,101.9 807.7,105.7 809.1,95.0 810.5,96.3 811.8,101.6 813.2,95.0 814.5,109.9 815.9,136.5 817.2,161.4 818.6,118.1 819.9,136.5 821.3,131.7 822.6,114.5 824.0,111.2 825.3,100.2 826.7,95.0 828.0,104.7 829.4,114.7 830.7,115.2 832.1,97.7 833.4,95.0 834.8,95.0 836.1,115.8 837.5,104.4 838.8,99.5 840.2,95.0 841.5,118.9 842.9,97.8 844.2,98.7 845.6,111.5 846.9,102.7 848.3,100.0 849.6,95.0 851.0,105.5 852.4,104.7 853.7,119.5 855.1,144.2 856.4,132.6 857.8,110.0 859.1,103.1 860.5,95.0 861.8,95.0 863.2,99.9 864.5,108.1 865.9,136.3 867.2,138.7 868.6,130.2 869.9,132.1 871.3,109.7 872.6,132.6 874.0,119.4 875.3,158.2 876.7,192.1 878.0,169.4 879.4,172.2 880.7,177.6 882.1,172.1 883.4,188.7 884.8,217.2 886.1,164.6 887.5,143.2 888.8,163.0 890.2,190.5 891.6,198.2 892.9,218.6 894.3,253.3 895.6,297.0 897.0,286.0 898.3,235.6 899.7,246.5 901.0,324.8 902.4,324.3 903.7,312.3 905.1,327.7 906.4,338.8 907.8,294.7 909.1,269.5 910.5,259.7 911.8,250.5 913.2,264.5 914.5,285.0 915.9,326.4 917.2,296.9 918.6,343.2 919.9,420.2 921.3,368.5 922.6,420.1 924.0,405.0 925.3,394.9 926.7,384.9 928.0,395.2 929.4,331.6 930.8,325.8 932.1,301.1 933.5,318.9 934.8,337.0 936.2,346.4 937.5,348.8 938.9,314.9 940.2,288.0 941.6,264.7 942.9,244.7 944.3,281.9 945.6,289.2 947.0,319.6 948.3,299.9 949.7,322.6 951.0,312.6 952.4,308.4 953.7,272.7 955.1,272.0 956.4,275.1 957.8,292.4 959.1,286.3 960.5,275.8 961.8,283.7 963.2,302.3 964.5,270.3 965.9,264.8 967.2,242.7 968.6,266.6 969.9,254.3 971.3,234.1 972.7,213.9 974.0,214.1 975.4,239.4 976.7,245.0 978.1,283.7 979.4,275.0 980.8,247.9 982.1,262.5 983.5,260.4 984.8,293.3 986.2,316.8 987.5,310.3 988.9,301.6 990.2,331.5 991.6,334.7 992.9,292.6 994.3,264.5 995.6,256.3 997.0,241.6 998.3,238.0 999.7,188.4 1001.0,184.3 1002.4,177.2 1003.7,192.8 1005.1,206.4 1006.4,198.6 1007.8,194.1 1009.1,188.0 1010.5,192.8 1011.9,177.2 1013.2,157.6 1014.6,143.9 1015.9,158.0 1017.3,143.9 1018.6,137.1 1020.0,127.9 1021.3,173.3 1022.7,167.6 1024.0,176.3 1025.4,139.4 1026.7,125.3 1028.1,116.8 1029.4,135.6 1030.8,111.9 1032.1,111.2 1033.5,109.0 1034.8,113.7 1036.2,99.1 1037.5,95.0 1038.9,120.5 1040.2,129.3 1041.6,160.9 1042.9,120.0 1044.3,95.0 1045.6,105.5 1047.0,114.7 1048.3,100.6 1049.7,97.8 1051.1,95.0 1052.4,100.6 1053.8,102.5 1055.1,98.7 1056.5,113.3 1057.8,122.4 1059.2,103.6 1060.5,128.2 1061.9,104.6 1063.2,95.0 1064.6,95.0 1065.9,148.3 1067.3,132.6 1068.6,138.5 1070.0,152.9 1071.3,111.5 1072.7,115.5 1074.0,95.0 1075.4,102.7 1076.7,95.0 1078.1,114.6 1079.4,124.8 1080.8,133.3 1082.1,126.4 1083.5,135.0 1084.8,228.2 1086.2,175.2 1087.5,166.5 1088.9,129.7 1090.3,120.6 1091.6,107.7 1093.0,111.7 1094.3,98.0 1095.7,96.9 1097.0,95.0 1098.4,102.8 1099.7,95.0 1101.1,105.3 1102.4,108.3 1103.8,95.0 1105.1,99.7 1106.5,105.4 1107.8,95.0 1109.2,104.7 1110.5,98.1 1111.9,95.0 1113.2,97.2 1114.6,97.3 1115.9,99.8 1117.3,95.0 1118.6,123.5 1120.0,95.0 1121.3,95.0 1122.7,107.9 1124.0,104.4 1125.4,129.3 1126.7,121.4 1128.1,98.5 1129.4,95.0 1130.8,115.2 1132.2,95.0 1133.5,106.8 1134.9,95.0 1136.2,105.2 1137.6,95.0 1138.9,123.9 1140.3,103.5 1141.6,102.1 1143.0,95.0 1144.3,120.6 1145.7,131.7 1147.0,143.7 1148.4,176.1 1149.7,138.5 1151.1,99.2 1152.4,95.6 1153.8,97.2 1155.1,101.6 1156.5,102.4 1157.8,129.1 1159.2,100.3 1160.5,103.0 1161.9,146.3 1163.2,109.5 1164.6,127.4 1165.9,116.9 1167.3,134.0 1168.6,134.4 1170.0,138.3"/>
<polyline fill="none" stroke="#16a34a" stroke-width="2" points="90.0,95.0 91.4,128.6 92.7,99.1 94.1,103.3 95.4,95.0 96.8,96.0 98.1,95.0 99.5,115.2 100.8,107.3 102.2,95.0 103.5,95.0 104.9,95.0 106.2,97.7 107.6,135.5 108.9,118.1 110.3,136.7 111.6,140.3 113.0,141.1 114.3,110.7 115.7,109.4 117.0,125.2 118.4,117.1 119.7,96.2 121.1,95.0 122.4,101.1 123.8,95.0 125.1,117.4 126.5,104.3 127.8,105.6 129.2,95.0 130.6,95.0 131.9,95.0 133.3,95.0 134.6,95.0 136.0,96.7 137.3,112.6 138.7,106.6 140.0,95.0 141.4,107.6 142.7,154.5 144.1,138.1 145.4,128.4 146.8,135.3 148.1,134.6 149.5,123.3 150.8,108.7 152.2,115.8 153.5,107.1 154.9,114.3 156.2,110.5 157.6,111.2 158.9,102.8 160.3,101.8 161.6,96.7 163.0,106.5 164.3,106.5 165.7,96.9 167.0,95.0 168.4,99.6 169.7,100.4 171.1,95.0 172.5,102.1 173.8,104.6 175.2,116.4 176.5,115.3 177.9,108.1 179.2,112.5 180.6,125.8 181.9,120.1 183.3,114.8 184.6,99.5 186.0,105.9 187.3,101.5 188.7,101.1 190.0,155.8 191.4,103.4 192.7,105.9 194.1,95.0 195.4,95.0 196.8,103.7 198.1,124.6 199.5,139.5 200.8,134.3 202.2,117.2 203.5,122.8 204.9,95.0 206.2,97.0 207.6,107.8 208.9,132.3 210.3,146.2 211.7,118.8 213.0,139.8 214.4,127.1 215.7,130.0 217.1,113.4 218.4,98.7 219.8,96.0 221.1,98.4 222.5,95.0 223.8,95.2 225.2,95.9 226.5,107.1 227.9,117.8 229.2,123.3 230.6,119.8 231.9,112.3 233.3,120.9 234.6,117.7 236.0,114.3 237.3,101.1 238.7,117.9 240.0,126.4 241.4,140.8 242.7,141.9 244.1,148.2 245.4,139.7 246.8,118.9 248.1,130.5 249.5,97.5 250.9,106.3 252.2,95.0 253.6,100.0 254.9,95.0 256.3,95.0 257.6,99.8 259.0,95.8 260.3,95.0 261.7,97.8 263.0,98.8 264.4,103.0 265.7,95.9 267.1,107.0 268.4,98.7 269.8,123.4 271.1,121.6 272.5,123.0 273.8,132.0 275.2,111.1 276.5,107.0 277.9,103.1 279.2,108.8 280.6,108.4 281.9,104.4 283.3,96.8 284.6,95.0 286.0,103.4 287.3,104.7 288.7,99.8 290.1,100.7 291.4,104.3 292.8,101.0 294.1,103.7 295.5,98.3 296.8,95.0 298.2,95.0 299.5,98.4 300.9,115.1 302.2,96.8 303.6,96.5 304.9,108.3 306.3,103.2 307.6,125.3 309.0,139.7 310.3,151.4 311.7,140.7 313.0,197.7 314.4,181.2 315.7,156.4 317.1,150.1 318.4,147.5 319.8,150.1 321.1,151.5 322.5,171.0 323.8,162.2 325.2,169.3 326.5,160.4 327.9,154.5 329.2,137.5 330.6,140.1 332.0,147.0 333.3,125.9 334.7,106.1 336.0,104.7 337.4,119.2 338.7,129.8 340.1,134.5 341.4,116.9 342.8,124.7 344.1,134.5 345.5,122.0 346.8,117.1 348.2,123.3 349.5,108.6 350.9,102.5 352.2,112.4 353.6,113.5 354.9,95.0 356.3,95.0 357.6,95.0 359.0,105.3 360.3,104.5 361.7,110.2 363.0,100.3 364.4,96.7 365.7,101.1 367.1,96.0 368.4,95.0 369.8,98.9 371.2,97.5 372.5,95.0 373.9,97.3 375.2,95.0 376.6,95.0 377.9,96.7 379.3,95.0 380.6,100.7 382.0,102.4 383.3,95.0 384.7,104.2 386.0,114.4 387.4,102.0 388.7,96.8 390.1,95.0 391.4,103.9 392.8,131.4 394.1,130.0 395.5,137.2 396.8,142.9 398.2,147.6 399.5,136.6 400.9,128.8 402.2,120.6 403.6,124.0 404.9,118.9 406.3,107.5 407.6,114.5 409.0,121.5 410.4,128.9 411.7,120.4 413.1,124.0 414.4,111.9 415.8,98.0 417.1,97.7 418.5,95.0 419.8,115.6 421.2,109.5 422.5,101.1 423.9,111.0 425.2,126.0 426.6,95.0 427.9,111.3 429.3,95.0 430.6,98.3 432.0,99.8 433.3,97.7 434.7,126.4 436.0,128.7 437.4,122.8 438.7,120.3 440.1,138.8 441.4,141.1 442.8,135.0 444.1,145.0 445.5,152.5 446.8,156.5 448.2,148.9 449.5,164.9 450.9,154.9 452.3,155.1 453.6,157.6 455.0,224.1 456.3,212.4 457.7,206.2 459.0,191.2 460.4,202.4 461.7,204.8 463.1,167.2 464.4,156.5 465.8,152.7 467.1,160.3 468.5,160.9 469.8,196.1 471.2,175.1 472.5,175.1 473.9,182.3 475.2,204.8 476.6,196.8 477.9,193.7 479.3,221.5 480.6,235.6 482.0,235.9 483.3,216.5 484.7,234.5 486.0,229.0 487.4,212.9 488.7,194.2 490.1,180.3 491.5,162.3 492.8,161.3 494.2,143.5 495.5,149.4 496.9,133.1 498.2,130.8 499.6,126.6 500.9,130.8 502.3,131.2 503.6,139.0 505.0,124.4 506.3,100.7 507.7,112.1 509.0,105.7 510.4,102.7 511.7,95.3 513.1,96.4 514.4,98.9 515.8,95.0 517.1,102.1 518.5,95.5 519.8,100.7 521.2,109.1 522.5,103.9 523.9,118.8 525.2,127.0 526.6,104.8 527.9,119.6 529.3,130.4 530.7,124.3 532.0,122.7 533.4,143.4 534.7,154.3 536.1,165.9 537.4,166.0 538.8,174.7 540.1,150.6 541.5,164.5 542.8,159.9 544.2,146.6 545.5,133.5 546.9,131.4 548.2,128.3 549.6,128.0 550.9,116.2 552.3,110.0 553.6,97.6 555.0,111.9 556.3,128.8 557.7,108.7 559.0,106.2 560.4,97.7 561.7,96.7 563.1,100.7 564.4,95.1 565.8,100.7 567.1,101.2 568.5,96.3 569.8,95.0 571.2,95.0 572.6,102.7 573.9,101.0 575.3,96.9 576.6,106.9 578.0,111.5 579.3,95.0 580.7,98.5 582.0,95.0 583.4,100.2 584.7,100.7 586.1,95.9 587.4,95.0 588.8,95.0 590.1,98.9 591.5,102.5 592.8,101.6 594.2,98.6 595.5,95.0 596.9,102.6 598.2,101.2 599.6,95.0 600.9,104.8 602.3,99.7 603.6,95.0 605.0,107.7 606.3,100.0 607.7,106.5 609.0,95.0 610.4,95.0 611.8,95.0 613.1,95.0 614.5,112.7 615.8,145.9 617.2,160.1 618.5,156.3 619.9,155.5 621.2,142.7 622.6,136.1 623.9,152.4 625.3,143.8 626.6,148.4 628.0,137.6 629.3,150.4 630.7,150.2 632.0,143.1 633.4,132.9 634.7,140.0 636.1,126.4 637.4,124.7 638.8,126.6 640.1,132.4 641.5,137.4 642.8,121.5 644.2,120.2 645.5,126.3 646.9,127.3 648.2,123.1 649.6,131.1 651.0,121.4 652.3,109.7 653.7,119.4 655.0,127.0 656.4,127.4 657.7,123.8 659.1,128.5 660.4,162.6 661.8,155.4 663.1,171.2 664.5,166.1 665.8,162.6 667.2,174.1 668.5,187.8 669.9,156.4 671.2,173.0 672.6,184.9 673.9,199.6 675.3,188.3 676.6,157.5 678.0,146.5 679.3,142.1 680.7,120.7 682.0,121.6 683.4,102.0 684.7,104.5 686.1,111.4 687.4,96.1 688.8,95.0 690.2,96.0 691.5,95.0 692.9,100.1 694.2,104.6 695.6,95.3 696.9,95.0 698.3,115.9 699.6,114.1 701.0,109.8 702.3,98.0 703.7,95.2 705.0,95.0 706.4,106.6 707.7,95.0 709.1,108.6 710.4,102.3 711.8,107.6 713.1,105.4 714.5,100.3 715.8,95.0 717.2,103.4 718.5,96.0 719.9,110.3 721.2,104.4 722.6,98.5 723.9,110.0 725.3,108.9 726.6,102.0 728.0,95.0 729.3,95.0 730.7,103.0 732.1,111.2 733.4,98.4 734.8,101.1 736.1,99.5 737.5,95.0 738.8,95.0 740.2,97.6 741.5,100.3 742.9,95.0 744.2,95.0 745.6,98.3 746.9,95.0 748.3,95.0 749.6,109.4 751.0,132.5 752.3,170.1 753.7,299.7 755.0,330.2 756.4,247.6 757.7,229.8 759.1,192.8 760.4,196.9 761.8,166.6 763.1,184.6 764.5,188.1 765.8,161.9 767.2,140.3 768.5,116.3 769.9,120.7 771.3,107.2 772.6,111.2 774.0,98.1 775.3,95.0 776.7,95.0 778.0,95.0 779.4,95.0 780.7,114.4 782.1,115.4 783.4,102.6 784.8,111.5 786.1,128.8 787.5,122.5 788.8,143.5 790.2,131.4 791.5,102.6 792.9,119.7 794.2,126.8 795.6,143.2 796.9,106.7 798.3,95.0 799.6,95.0 801.0,98.9 802.3,103.5 803.7,95.0 805.0,101.2 806.4,98.4 807.7,106.1 809.1,95.0 810.5,96.0 811.8,102.2 813.2,95.0 814.5,109.2 815.9,135.5 817.2,154.1 818.6,124.6 819.9,143.6 821.3,138.2 822.6,128.1 824.0,123.5 825.3,105.9 826.7,95.0 828.0,99.9 829.4,110.0 830.7,110.1 832.1,95.0 833.4,95.0 834.8,95.0 836.1,115.3 837.5,106.3 838.8,101.4 840.2,95.0 841.5,105.4 842.9,96.5 844.2,95.2 845.6,114.2 846.9,102.8 848.3,101.6 849.6,95.9 851.0,104.0 852.4,99.5 853.7,110.1 855.1,136.3 856.4,128.5 857.8,108.7 859.1,110.8 860.5,95.9 861.8,95.0 863.2,102.7 864.5,108.2 865.9,128.9 867.2,127.0 868.6,120.7 869.9,123.5 871.3,110.0 872.6,130.1 874.0,121.0 875.3,149.2 876.7,172.3 878.0,161.3 879.4,162.5 880.7,165.8 882.1,158.3 883.4,165.1 884.8,201.3 886.1,168.5 887.5,154.1 888.8,172.0 890.2,195.8 891.6,207.7 892.9,220.8 894.3,250.8 895.6,277.1 897.0,268.8 898.3,228.0 899.7,244.5 901.0,309.4 902.4,307.8 903.7,297.0 905.1,305.1 906.4,313.7 907.8,279.7 909.1,254.9 910.5,246.4 911.8,246.7 913.2,261.0 914.5,276.2 915.9,311.8 917.2,294.2 918.6,330.8 919.9,401.0 921.3,351.6 922.6,397.7 924.0,388.7 925.3,384.0 926.7,374.9 928.0,381.2 929.4,321.3 930.8,316.4 932.1,292.0 933.5,303.2 934.8,315.7 936.2,328.8 937.5,330.8 938.9,300.0 940.2,272.2 941.6,257.8 942.9,242.9 944.3,278.6 945.6,289.8 947.0,314.4 948.3,298.7 949.7,303.3 951.0,293.8 952.4,291.1 953.7,260.5 955.1,259.3 956.4,265.9 957.8,274.5 959.1,267.9 960.5,262.5 961.8,273.1 963.2,293.3 964.5,265.9 965.9,262.9 967.2,245.1 968.6,262.7 969.9,257.7 971.3,239.8 972.7,221.7 974.0,223.4 975.4,248.8 976.7,251.7 978.1,288.1 979.4,278.9 980.8,254.9 982.1,269.5 983.5,268.7 984.8,298.3 986.2,321.9 987.5,314.7 988.9,308.2 990.2,332.9 991.6,335.6 992.9,296.0 994.3,271.2 995.6,262.3 997.0,246.2 998.3,240.3 999.7,196.4 1001.0,193.1 1002.4,186.5 1003.7,201.5 1005.1,213.0 1006.4,209.4 1007.8,200.7 1009.1,198.6 1010.5,206.7 1011.9,193.3 1013.2,174.9 1014.6,159.3 1015.9,174.2 1017.3,161.0 1018.6,156.1 1020.0,146.9 1021.3,187.8 1022.7,182.5 1024.0,191.1 1025.4,157.0 1026.7,145.0 1028.1,137.1 1029.4,154.6 1030.8,130.1 1032.1,130.4 1033.5,128.6 1034.8,136.2 1036.2,114.3 1037.5,95.0 1038.9,118.5 1040.2,123.6 1041.6,145.8 1042.9,108.0 1044.3,95.0 1045.6,103.9 1047.0,108.5 1048.3,95.7 1049.7,96.7 1051.1,95.0 1052.4,103.4 1053.8,106.9 1055.1,103.3 1056.5,118.3 1057.8,125.9 1059.2,114.2 1060.5,135.3 1061.9,114.1 1063.2,101.2 1064.6,100.6 1065.9,149.6 1067.3,137.4 1068.6,142.4 1070.0,156.2 1071.3,118.0 1072.7,119.5 1074.0,98.2 1075.4,104.5 1076.7,95.0 1078.1,105.9 1079.4,113.8 1080.8,119.8 1082.1,112.2 1083.5,118.7 1084.8,197.1 1086.2,152.8 1087.5,143.2 1088.9,109.3 1090.3,103.3 1091.6,102.1 1093.0,109.8 1094.3,95.7 1095.7,97.2 1097.0,95.0 1098.4,101.5 1099.7,95.0 1101.1,105.2 1102.4,108.6 1103.8,95.0 1105.1,97.9 1106.5,100.4 1107.8,95.0 1109.2,103.0 1110.5,97.7 1111.9,95.0 1113.2,97.2 1114.6,99.3 1115.9,99.8 1117.3,95.0 1118.6,117.3 1120.0,95.0 1121.3,95.7 1122.7,108.8 1124.0,104.9 1125.4,125.0 1126.7,117.2 1128.1,98.6 1129.4,95.9 1130.8,111.0 1132.2,95.0 1133.5,105.6 1134.9,95.0 1136.2,105.2 1137.6,95.0 1138.9,120.2 1140.3,100.9 1141.6,97.3 1143.0,95.0 1144.3,118.7 1145.7,130.0 1147.0,138.0 1148.4,167.3 1149.7,134.0 1151.1,101.9 1152.4,95.6 1153.8,97.9 1155.1,101.2 1156.5,101.6 1157.8,125.9 1159.2,99.7 1160.5,101.8 1161.9,135.4 1163.2,105.6 1164.6,117.4 1165.9,110.8 1167.3,127.0 1168.6,126.0 1170.0,128.9"/>
<polyline fill="none" stroke="#9333ea" stroke-width="2" points="90.0,95.0 91.4,107.6 92.7,97.9 94.1,100.5 95.4,95.0 96.8,100.3 98.1,95.0 99.5,116.2 100.8,110.8 102.2,104.5 103.5,95.0 104.9,96.0 106.2,95.0 107.6,104.3 108.9,95.2 110.3,95.0 111.6,100.6 113.0,97.7 114.3,95.0 115.7,95.0 117.0,98.3 118.4,98.4 119.7,95.0 121.1,95.0 122.4,101.5 123.8,95.0 125.1,99.4 126.5,97.1 127.8,108.5 129.2,107.6 130.6,103.7 131.9,95.0 133.3,95.0 134.6,95.0 136.0,98.8 137.3,109.2 138.7,112.7 140.0,99.0 141.4,110.8 142.7,146.9 144.1,136.0 145.4,133.3 146.8,146.2 148.1,148.2 149.5,141.7 150.8,133.3 152.2,134.3 153.5,137.1 154.9,144.1 156.2,144.3 157.6,149.1 158.9,142.6 160.3,131.0 161.6,123.0 163.0,123.9 164.3,115.2 165.7,118.1 167.0,112.9 168.4,119.4 169.7,102.2 171.1,95.0 172.5,96.7 173.8,97.8 175.2,95.0 176.5,95.0 177.9,105.9 179.2,104.9 180.6,107.4 181.9,103.8 183.3,121.2 184.6,95.0 186.0,104.3 187.3,103.2 188.7,95.0 190.0,108.0 191.4,96.2 192.7,104.4 194.1,95.1 195.4,101.3 196.8,99.1 198.1,95.0 199.5,130.0 200.8,123.4 202.2,119.7 203.5,123.7 204.9,103.4 206.2,95.0 207.6,108.4 208.9,120.2 210.3,128.2 211.7,115.6 213.0,122.1 214.4,113.7 215.7,114.9 217.1,105.9 218.4,95.0 219.8,103.2 221.1,95.0 222.5,96.0 223.8,95.5 225.2,98.0 226.5,104.2 227.9,110.0 229.2,127.7 230.6,124.0 231.9,113.8 233.3,117.5 234.6,106.8 236.0,106.5 237.3,96.3 238.7,104.3 240.0,106.3 241.4,110.3 242.7,110.4 244.1,106.3 245.4,104.7 246.8,95.5 248.1,100.0 249.5,95.0 250.9,95.5 252.2,95.0 253.6,95.0 254.9,97.6 256.3,97.4 257.6,108.5 259.0,95.0 260.3,95.0 261.7,99.3 263.0,98.9 264.4,95.0 265.7,95.3 267.1,103.5 268.4,98.1 269.8,118.1 271.1,116.1 272.5,113.5 273.8,116.7 275.2,106.7 276.5,102.9 277.9,104.4 279.2,116.0 280.6,114.1 281.9,116.5 283.3,108.3 284.6,105.6 286.0,113.5 287.3,114.2 288.7,109.1 290.1,112.4 291.4,107.5 292.8,107.7 294.1,111.6 295.5,104.9 296.8,95.0 298.2,95.0 299.5,95.0 300.9,104.8 302.2,95.0 303.6,102.3 304.9,112.6 306.3,110.3 307.6,128.8 309.0,137.3 310.3,143.1 311.7,136.3 313.0,185.7 314.4,172.6 315.7,160.1 317.1,155.3 318.4,155.4 319.8,154.4 321.1,155.1 322.5,177.6 323.8,170.5 325.2,168.9 326.5,178.1 327.9,169.2 329.2,150.3 330.6,152.6 332.0,154.5 333.3,141.7 334.7,124.0 336.0,122.1 337.4,133.4 338.7,139.0 340.1,142.1 341.4,126.6 342.8,133.3 344.1,137.2 345.5,126.3 346.8,127.2 348.2,133.0 349.5,121.0 350.9,113.4 352.2,114.4 353.6,115.1 354.9,97.8 356.3,95.1 357.6,95.0 359.0,109.8 360.3,107.1 361.7,107.7 363.0,104.9 364.4,98.6 365.7,95.0 367.1,96.4 368.4,95.0 369.8,97.2 371.2,95.0 372.5,95.7 373.9,97.3 375.2,103.2 376.6,100.6 377.9,96.5 379.3,95.8 380.6,101.2 382.0,102.1 383.3,95.0 384.7,104.4 386.0,106.9 387.4,99.2 388.7,99.1 390.1,95.0 391.4,109.0 392.8,129.4 394.1,123.7 395.5,125.0 396.8,121.9 398.2,122.1 399.5,118.0 400.9,113.7 402.2,112.2 403.6,114.1 404.9,112.3 406.3,102.1 407.6,112.3 409.0,116.0 410.4,120.4 411.7,118.7 413.1,117.4 414.4,112.1 415.8,104.5 417.1,102.4 418.5,95.3 419.8,111.1 421.2,110.5 422.5,102.6 423.9,112.0 425.2,121.8 426.6,101.3 427.9,111.1 429.3,100.4 430.6,100.9 432.0,96.4 433.3,102.2 434.7,120.8 436.0,127.3 437.4,128.2 438.7,120.4 440.1,139.0 441.4,138.1 442.8,135.6 444.1,142.9 445.5,144.6 446.8,150.6 448.2,144.0 449.5,150.9 450.9,144.0 452.3,146.0 453.6,147.4 455.0,192.6 456.3,177.4 457.7,172.3 459.0,168.6 460.4,171.0 461.7,169.5 463.1,148.7 464.4,141.5 465.8,139.1 467.1,145.5 468.5,148.4 469.8,171.7 471.2,160.0 472.5,156.9 473.9,163.1 475.2,179.7 476.6,179.7 477.9,179.0 479.3,192.6 480.6,201.5 482.0,202.3 483.3,185.0 484.7,191.9 486.0,191.8 487.4,179.2 488.7,170.2 490.1,157.6 491.5,144.8 492.8,140.7 494.2,129.3 495.5,126.9 496.9,119.1 498.2,115.9 499.6,107.8 500.9,111.7 502.3,106.4 503.6,114.1 505.0,105.0 506.3,95.0 507.7,102.1 509.0,104.0 510.4,95.0 511.7,95.0 513.1,101.0 514.4,105.1 515.8,103.3 517.1,102.0 518.5,99.7 519.8,99.8 521.2,106.4 522.5,106.1 523.9,115.8 525.2,122.2 526.6,103.2 527.9,113.4 529.3,120.2 530.7,115.5 532.0,115.1 533.4,129.2 534.7,142.9 536.1,155.5 537.4,160.2 538.8,166.6 540.1,152.3 541.5,164.5 542.8,157.6 544.2,147.8 545.5,137.6 546.9,137.5 548.2,138.2 549.6,136.6 550.9,126.3 552.3,123.4 553.6,110.0 555.0,124.0 556.3,140.9 557.7,124.9 559.0,120.2 560.4,112.7 561.7,111.7 563.1,102.6 564.4,102.4 565.8,106.4 567.1,110.0 568.5,97.5 569.8,95.8 571.2,95.0 572.6,102.0 573.9,99.3 575.3,97.1 576.6,108.0 578.0,109.6 579.3,95.0 580.7,99.8 582.0,95.0 583.4,100.4 584.7,99.3 586.1,95.0 587.4,95.0 588.8,95.0 590.1,101.0 591.5,103.1 592.8,102.5 594.2,101.3 595.5,95.0 596.9,100.7 598.2,97.0 599.6,95.0 600.9,106.5 602.3,102.1 603.6,95.0 605.0,100.1 606.3,96.7 607.7,103.3 609.0,95.0 610.4,95.0 611.8,95.0 613.1,95.0 614.5,108.2 615.8,133.2 617.2,145.0 618.5,144.2 619.9,140.7 621.2,134.1 622.6,130.3 623.9,140.2 625.3,132.2 626.6,133.8 628.0,126.5 629.3,139.0 630.7,141.3 632.0,138.2 633.4,130.8 634.7,135.8 636.1,121.5 637.4,127.6 638.8,126.3 640.1,132.6 641.5,132.5 642.8,120.8 644.2,120.0 645.5,125.4 646.9,125.6 648.2,122.9 649.6,126.1 651.0,116.9 652.3,109.7 653.7,117.4 655.0,122.1 656.4,124.8 657.7,120.6 659.1,123.4 660.4,147.4 661.8,143.3 663.1,155.3 664.5,153.4 665.8,153.1 667.2,161.7 668.5,170.3 669.9,148.5 671.2,155.1 672.6,160.5 673.9,170.0 675.3,152.4 676.6,136.1 678.0,130.6 679.3,126.6 680.7,110.5 682.0,109.6 683.4,95.0 684.7,99.4 686.1,105.7 687.4,95.0 688.8,95.0 690.2,95.0 691.5,95.0 692.9,99.3 694.2,104.4 695.6,95.0 696.9,97.0 698.3,104.1 699.6,101.9 701.0,95.7 702.3,95.0 703.7,98.7 705.0,95.0 706.4,101.1 707.7,95.0 709.1,109.6 710.4,101.8 711.8,105.4 713.1,96.2 714.5,98.8 715.8,95.0 717.2,97.7 718.5,96.9 719.9,114.9 721.2,113.5 722.6,101.7 723.9,111.0 725.3,108.1 726.6,109.8 728.0,104.1 729.3,101.2 730.7,103.1 732.1,110.3 733.4,97.9 734.8,101.0 736.1,99.7 737.5,95.0 738.8,95.0 740.2,96.4 741.5,101.4 742.9,95.0 744.2,95.0 745.6,95.0 746.9,95.2 748.3,95.0 749.6,101.8 751.0,113.7 752.3,129.6 753.7,230.0 755.0,257.4 756.4,192.0 757.7,172.5 759.1,138.8 760.4,147.3 761.8,140.1 763.1,145.6 764.5,140.7 765.8,125.8 767.2,114.6 768.5,118.8 769.9,105.1 771.3,95.0 772.6,95.0 774.0,95.0 775.3,95.0 776.7,95.0 778.0,95.0 779.4,95.0 780.7,125.9 782.1,123.5 783.4,115.7 784.8,115.5 786.1,128.2 787.5,122.6 788.8,137.7 790.2,137.6 791.5,123.9 792.9,131.1 794.2,139.0 795.6,150.9 796.9,137.6 798.3,120.3 799.6,116.8 801.0,118.4 802.3,115.6 803.7,102.3 805.0,101.7 806.4,95.0 807.7,117.9 809.1,108.9 810.5,103.9 811.8,109.8 813.2,100.7 814.5,115.2 815.9,137.9 817.2,148.5 818.6,133.0 819.9,155.9 821.3,148.7 822.6,146.3 824.0,139.3 825.3,121.5 826.7,112.6 828.0,109.0 829.4,105.1 830.7,106.0 832.1,95.0 833.4,95.0 834.8,95.0 836.1,116.8 837.5,107.8 838.8,101.5 840.2,96.8 841.5,97.6 842.9,95.7 844.2,95.0 845.6,121.8 846.9,104.8 848.3,105.5 849.6,101.6 851.0,104.8 852.4,95.0 853.7,101.1 855.1,127.5 856.4,121.0 857.8,101.0 859.1,114.0 860.5,96.7 861.8,97.1 863.2,107.9 864.5,111.8 865.9,126.4 867.2,119.1 868.6,114.2 869.9,118.2 871.3,112.7 872.6,128.4 874.0,121.6 875.3,134.4 876.7,140.3 878.0,143.2 879.4,141.4 880.7,142.2 882.1,128.7 883.4,108.3 884.8,164.6 886.1,148.7 887.5,144.2 888.8,157.8 890.2,175.6 891.6,189.9 892.9,195.5 894.3,218.6 895.6,224.4 897.0,219.2 898.3,186.8 899.7,207.9 901.0,255.0 902.4,257.2 903.7,250.4 905.1,261.5 906.4,265.3 907.8,244.2 909.1,219.2 910.5,214.5 911.8,224.1 913.2,240.0 914.5,245.3 915.9,276.6 917.2,274.2 918.6,298.0 919.9,360.8 921.3,311.2 922.6,347.1 924.0,349.3 925.3,352.1 926.7,342.6 928.0,342.6 929.4,287.6 930.8,286.1 932.1,261.7 933.5,266.5 934.8,270.1 936.2,286.0 937.5,288.6 938.9,263.9 940.2,233.1 941.6,231.4 942.9,228.5 944.3,261.4 945.6,278.3 947.0,293.7 948.3,281.6 949.7,262.0 951.0,255.0 952.4,252.8 953.7,227.9 955.1,225.7 956.4,237.4 957.8,234.7 959.1,230.5 960.5,230.7 961.8,246.5 963.2,269.3 964.5,251.8 965.9,253.7 967.2,240.4 968.6,249.6 969.9,258.0 971.3,241.2 972.7,226.2 974.0,227.0 975.4,250.7 976.7,246.6 978.1,277.3 979.4,267.2 980.8,248.3 982.1,258.9 983.5,257.6 984.8,276.9 986.2,301.4 987.5,293.8 988.9,288.9 990.2,297.4 991.6,301.2 992.9,273.2 994.3,257.5 995.6,246.8 997.0,229.8 998.3,230.1 999.7,201.4 1001.0,198.6 1002.4,194.5 1003.7,208.2 1005.1,211.6 1006.4,212.0 1007.8,197.4 1009.1,203.2 1010.5,218.1 1011.9,209.5 1013.2,195.6 1014.6,177.3 1015.9,187.2 1017.3,176.8 1018.6,172.6 1020.0,160.2 1021.3,184.7 1022.7,183.4 1024.0,191.9 1025.4,167.5 1026.7,161.0 1028.1,153.6 1029.4,166.9 1030.8,146.6 1032.1,147.2 1033.5,145.2 1034.8,154.6 1036.2,135.7 1037.5,116.0 1038.9,137.0 1040.2,137.1 1041.6,139.6 1042.9,111.0 1044.3,97.1 1045.6,101.4 1047.0,100.4 1048.3,95.0 1049.7,95.0 1051.1,97.5 1052.4,103.4 1053.8,107.6 1055.1,110.6 1056.5,123.9 1057.8,124.4 1059.2,128.9 1060.5,138.9 1061.9,126.2 1063.2,114.8 1064.6,111.2 1065.9,148.9 1067.3,141.3 1068.6,141.1 1070.0,145.4 1071.3,118.1 1072.7,118.1 1074.0,100.9 1075.4,107.6 1076.7,95.0 1078.1,99.9 1079.4,106.0 1080.8,105.8 1082.1,99.9 1083.5,99.6 1084.8,153.5 1086.2,133.5 1087.5,123.7 1088.9,103.7 1090.3,103.1 1091.6,114.3 1093.0,111.0 1094.3,101.7 1095.7,97.6 1097.0,95.0 1098.4,95.0 1099.7,98.1 1101.1,105.9 1102.4,108.2 1103.8,95.0 1105.1,95.0 1106.5,98.0 1107.8,95.0 1109.2,99.0 1110.5,95.0 1111.9,95.0 1113.2,95.2 1114.6,105.0 1115.9,99.4 1117.3,95.2 1118.6,107.6 1120.0,95.0 1121.3,98.2 1122.7,106.1 1124.0,100.9 1125.4,111.6 1126.7,104.9 1128.1,96.3 1129.4,97.5 1130.8,104.0 1132.2,95.0 1133.5,108.6 1134.9,95.0 1136.2,103.6 1137.6,95.0 1138.9,121.4 1140.3,110.3 1141.6,103.4 1143.0,95.0 1144.3,98.7 1145.7,96.2 1147.0,104.6 1148.4,127.1 1149.7,97.5 1151.1,95.0 1152.4,95.0 1153.8,95.3 1155.1,97.1 1156.5,95.0 1157.8,111.8 1159.2,112.0 1160.5,103.0 1161.9,128.3 1163.2,127.1 1164.6,138.5 1165.9,132.1 1167.3,131.8 1168.6,122.8 1170.0,129.1"/>
<polyline fill="none" stroke="#ea580c" stroke-width="2" points="90.0,95.0 91.4,108.8 92.7,96.7 94.1,101.5 95.4,95.0 96.8,100.8 98.1,95.0 99.5,117.3 100.8,109.1 102.2,100.8 103.5,95.0 104.9,95.7 106.2,95.0 107.6,103.4 108.9,95.0 110.3,99.8 111.6,96.0 113.0,98.8 114.3,97.7 115.7,95.0 117.0,95.4 118.4,104.3 119.7,95.9 121.1,95.0 122.4,104.9 123.8,95.0 125.1,96.2 126.5,97.1 127.8,109.5 129.2,113.1 130.6,112.8 131.9,99.6 133.3,95.0 134.6,95.0 136.0,99.3 137.3,109.6 138.7,115.0 140.0,101.6 141.4,109.9 142.7,145.9 144.1,134.1 145.4,133.0 146.8,146.5 148.1,150.4 149.5,144.5 150.8,134.0 152.2,138.1 153.5,142.1 154.9,151.3 156.2,154.1 157.6,155.3 158.9,146.8 160.3,137.5 161.6,129.8 163.0,130.9 164.3,125.2 165.7,126.4 167.0,122.1 168.4,126.6 169.7,108.0 171.1,95.0 172.5,99.0 173.8,97.5 175.2,97.9 176.5,95.8 177.9,105.8 179.2,106.0 180.6,107.4 181.9,102.0 183.3,120.5 184.6,95.0 186.0,101.3 187.3,99.8 188.7,95.0 190.0,101.5 191.4,96.3 192.7,109.2 194.1,99.1 195.4,106.9 196.8,102.2 198.1,97.1 199.5,140.2 200.8,132.0 202.2,126.7 203.5,134.1 204.9,108.2 206.2,95.0 207.6,108.3 208.9,121.4 210.3,129.6 211.7,116.7 213.0,125.1 214.4,117.0 215.7,119.7 217.1,109.3 218.4,96.1 219.8,102.4 221.1,95.0 222.5,96.4 223.8,95.4 225.2,97.7 226.5,105.2 227.9,110.9 229.2,127.2 230.6,123.3 231.9,112.7 233.3,116.7 234.6,106.7 236.0,106.6 237.3,95.8 238.7,104.1 240.0,106.7 241.4,111.4 242.7,111.3 244.1,106.3 245.4,104.3 246.8,95.7 248.1,100.9 249.5,95.0 250.9,96.3 252.2,95.0 253.6,95.0 254.9,97.9 256.3,97.9 257.6,108.7 259.0,95.0 260.3,95.0 261.7,99.2 263.0,98.0 264.4,95.1 265.7,95.2 267.1,104.5 268.4,99.0 269.8,119.3 271.1,117.2 272.5,115.0 273.8,118.7 275.2,108.1 276.5,104.6 277.9,105.6 279.2,117.6 280.6,115.9 281.9,117.9 283.3,109.5 284.6,106.9 286.0,115.1 287.3,116.4 288.7,111.2 290.1,114.4 291.4,109.1 292.8,108.8 294.1,112.9 295.5,106.2 296.8,95.4 298.2,95.0 299.5,95.0 300.9,104.9 302.2,95.0 303.6,102.6 304.9,112.5 306.3,110.0 307.6,128.9 309.0,137.8 310.3,143.3 311.7,136.4 313.0,184.9 314.4,171.9 315.7,159.1 317.1,154.1 318.4,154.8 319.8,152.9 321.1,153.6 322.5,177.7 323.8,170.4 325.2,169.5 326.5,176.9 327.9,167.2 329.2,148.4 330.6,150.1 332.0,153.7 333.3,139.3 334.7,120.8 336.0,118.8 337.4,129.1 338.7,134.2 340.1,137.1 341.4,121.0 342.8,127.7 344.1,132.0 345.5,119.8 346.8,120.4 348.2,125.3 349.5,112.9 350.9,105.7 352.2,107.1 353.6,109.1 354.9,95.0 356.3,95.4 357.6,95.0 359.0,108.5 360.3,105.6 361.7,106.2 363.0,102.8 364.4,99.1 365.7,95.0 367.1,95.8 368.4,95.0 369.8,97.6 371.2,95.0 372.5,95.2 373.9,96.5 375.2,101.8 376.6,100.6 377.9,96.9 379.3,95.3 380.6,99.3 382.0,98.4 383.3,95.0 384.7,104.3 386.0,108.1 387.4,98.2 388.7,97.9 390.1,95.0 391.4,107.4 392.8,125.2 394.1,117.7 395.5,119.4 396.8,113.9 398.2,117.8 399.5,110.2 400.9,102.4 402.2,97.9 403.6,99.7 404.9,95.0 406.3,95.0 407.6,103.5 409.0,105.9 410.4,107.5 411.7,102.1 413.1,98.4 414.4,96.5 415.8,95.0 417.1,102.1 418.5,98.3 419.8,110.9 421.2,110.2 422.5,101.6 423.9,110.4 425.2,118.6 426.6,95.0 427.9,109.1 429.3,100.3 430.6,98.8 432.0,96.1 433.3,103.2 434.7,127.1 436.0,133.0 437.4,130.6 438.7,118.3 440.1,139.0 441.4,139.1 442.8,135.0 444.1,142.8 445.5,147.2 446.8,150.9 448.2,137.3 449.5,143.7 450.9,132.9 452.3,137.1 453.6,134.9 455.0,187.8 456.3,181.2 457.7,168.4 459.0,156.9 460.4,165.0 461.7,171.5 463.1,146.2 464.4,133.1 465.8,120.9 467.1,114.4 468.5,113.4 469.8,146.0 471.2,116.4 472.5,115.3 473.9,113.8 475.2,133.5 476.6,128.9 477.9,124.9 479.3,161.5 480.6,163.6 482.0,163.9 483.3,149.9 484.7,171.7 486.0,159.4 487.4,145.9 488.7,133.4 490.1,133.9 491.5,119.3 492.8,113.7 494.2,96.4 495.5,97.2 496.9,97.1 498.2,112.0 499.6,120.4 500.9,118.8 502.3,115.8 503.6,122.6 505.0,104.9 506.3,95.4 507.7,101.6 509.0,106.4 510.4,97.3 511.7,95.0 513.1,101.9 514.4,103.6 515.8,98.7 517.1,100.3 518.5,98.7 519.8,99.6 521.2,105.2 522.5,102.2 523.9,114.6 525.2,119.6 526.6,99.7 527.9,113.9 529.3,122.0 530.7,117.2 532.0,116.0 533.4,132.3 534.7,149.3 536.1,160.3 537.4,167.5 538.8,181.7 540.1,164.0 541.5,172.5 542.8,163.9 544.2,156.1 545.5,143.0 546.9,144.5 548.2,144.4 549.6,145.2 550.9,132.6 552.3,127.6 553.6,111.1 555.0,122.9 556.3,133.6 557.7,119.1 559.0,115.6 560.4,107.2 561.7,109.4 563.1,99.2 564.4,95.0 565.8,98.9 567.1,102.0 568.5,95.0 569.8,95.0 571.2,95.0 572.6,102.7 573.9,99.6 575.3,95.0 576.6,114.7 578.0,109.4 579.3,95.0 580.7,102.0 582.0,97.1 583.4,99.9 584.7,97.0 586.1,96.3 587.4,95.0 588.8,95.0 590.1,102.0 591.5,106.5 592.8,105.2 594.2,103.0 595.5,95.0 596.9,100.6 598.2,98.1 599.6,95.0 600.9,105.8 602.3,100.9 603.6,95.0 605.0,99.5 606.3,95.4 607.7,104.0 609.0,95.0 610.4,95.0 611.8,95.0 613.1,95.0 614.5,108.3 615.8,134.3 617.2,145.8 618.5,143.6 619.9,140.5 621.2,132.3 622.6,128.5 623.9,141.0 625.3,134.7 626.6,137.0 628.0,128.7 629.3,141.6 630.7,144.3 632.0,140.1 633.4,132.2 634.7,137.8 636.1,122.6 637.4,127.1 638.8,125.7 640.1,130.1 641.5,131.9 642.8,119.3 644.2,116.8 645.5,122.4 646.9,123.6 648.2,119.4 649.6,122.3 651.0,113.2 652.3,105.6 653.7,112.0 655.0,116.9 656.4,120.6 657.7,116.8 659.1,118.1 660.4,144.9 661.8,139.4 663.1,152.6 664.5,150.7 665.8,149.2 667.2,159.3 668.5,169.7 669.9,145.6 671.2,154.3 672.6,161.2 673.9,171.5 675.3,154.1 676.6,137.1 678.0,130.9 679.3,126.9 680.7,109.9 682.0,109.0 683.4,95.0 684.7,99.0 686.1,106.0 687.4,95.0 688.8,95.0 690.2,95.0 691.5,95.0 692.9,99.0 694.2,104.0 695.6,95.0 696.9,96.9 698.3,105.7 699.6,102.9 701.0,97.5 702.3,95.0 703.7,98.7 705.0,95.0 706.4,101.6 707.7,95.0 709.1,109.5 710.4,101.5 711.8,104.6 713.1,97.1 714.5,99.0 715.8,95.0 717.2,98.9 718.5,96.8 719.9,115.2 721.2,114.1 722.6,102.3 723.9,111.3 725.3,108.9 726.6,110.1 728.0,105.0 729.3,101.5 730.7,103.0 732.1,109.6 733.4,96.9 734.8,100.0 736.1,99.7 737.5,95.0 738.8,95.0 740.2,96.6 741.5,100.4 742.9,95.0 744.2,95.0 745.6,95.0 746.9,95.0 748.3,95.0 749.6,101.4 751.0,113.0 752.3,126.4 753.7,224.6 755.0,252.7 756.4,185.8 757.7,163.7 759.1,123.8 760.4,118.2 761.8,106.7 763.1,110.4 764.5,105.3 765.8,102.5 767.2,95.0 768.5,116.4 769.9,103.9 771.3,95.0 772.6,95.0 774.0,95.0 775.3,96.6 776.7,95.0 778.0,95.0 779.4,95.0 780.7,129.7 782.1,126.4 783.4,115.7 784.8,115.1 786.1,130.3 787.5,127.2 788.8,139.5 790.2,138.4 791.5,118.1 792.9,134.1 794.2,141.8 795.6,158.2 796.9,148.8 798.3,133.8 799.6,142.1 801.0,139.4 802.3,139.4 803.7,126.3 805.0,127.1 806.4,114.4 807.7,135.7 809.1,127.3 810.5,120.2 811.8,126.9 813.2,118.7 814.5,135.2 815.9,161.4 817.2,172.4 818.6,156.4 819.9,178.9 821.3,171.3 822.6,167.6 824.0,160.1 825.3,143.4 826.7,134.7 828.0,132.5 829.4,129.8 830.7,130.8 832.1,115.7 833.4,110.1 834.8,95.0 836.1,116.7 837.5,107.9 838.8,101.2 840.2,97.0 841.5,97.2 842.9,95.7 844.2,95.0 845.6,121.6 846.9,104.6 848.3,104.5 849.6,100.3 851.0,104.0 852.4,95.0 853.7,101.4 855.1,128.7 856.4,122.0 857.8,102.3 859.1,114.4 860.5,96.8 861.8,96.1 863.2,107.6 864.5,110.2 865.9,124.1 867.2,118.1 868.6,112.8 869.9,117.2 871.3,111.1 872.6,128.4 874.0,121.5 875.3,136.2 876.7,143.3 878.0,144.3 879.4,143.1 880.7,144.1 882.1,129.3 883.4,105.2 884.8,163.4 886.1,145.9 887.5,141.0 888.8,154.4 890.2,171.2 891.6,185.0 892.9,191.0 894.3,210.3 895.6,229.3 897.0,225.0 898.3,191.5 899.7,200.8 901.0,243.5 902.4,250.9 903.7,250.1 905.1,283.9 906.4,288.7 907.8,265.8 909.1,238.9 910.5,235.3 911.8,236.2 913.2,249.2 914.5,254.4 915.9,290.0 917.2,280.8 918.6,312.4 919.9,371.3 921.3,320.9 922.6,352.1 924.0,356.0 925.3,350.7 926.7,345.9 928.0,348.4 929.4,300.7 930.8,306.6 932.1,283.1 933.5,302.0 934.8,303.9 936.2,312.0 937.5,314.2 938.9,295.1 940.2,267.6 941.6,260.1 942.9,261.4 944.3,290.9 945.6,303.1 947.0,319.9 948.3,303.3 949.7,294.5 951.0,288.7 952.4,283.2 953.7,256.4 955.1,253.8 956.4,260.7 957.8,269.6 959.1,273.9 960.5,263.8 961.8,276.9 963.2,298.9 964.5,283.2 965.9,284.3 967.2,264.6 968.6,278.6 969.9,281.8 971.3,263.6 972.7,245.0 974.0,240.3 975.4,260.3 976.7,254.2 978.1,284.3 979.4,276.7 980.8,253.7 982.1,257.8 983.5,253.0 984.8,274.4 986.2,294.3 987.5,291.2 988.9,283.8 990.2,293.9 991.6,303.0 992.9,268.4 994.3,242.0 995.6,231.6 997.0,227.2 998.3,257.0 999.7,220.4 1001.0,210.6 1002.4,208.7 1003.7,220.9 1005.1,215.3 1006.4,184.0 1007.8,192.5 1009.1,171.0 1010.5,176.5 1011.9,159.0 1013.2,141.8 1014.6,138.5 1015.9,133.7 1017.3,113.1 1018.6,104.6 1020.0,95.0 1021.3,108.5 1022.7,117.8 1024.0,130.3 1025.4,107.0 1026.7,95.0 1028.1,111.5 1029.4,127.3 1030.8,111.0 1032.1,104.8 1033.5,105.8 1034.8,96.5 1036.2,105.3 1037.5,95.0 1038.9,134.7 1040.2,165.8 1041.6,200.5 1042.9,151.2 1044.3,120.4 1045.6,125.6 1047.0,144.8 1048.3,122.9 1049.7,95.0 1051.1,100.4 1052.4,100.6 1053.8,98.8 1055.1,95.0 1056.5,104.0 1057.8,108.9 1059.2,114.3 1060.5,124.3 1061.9,110.6 1063.2,97.6 1064.6,95.0 1065.9,141.4 1067.3,124.5 1068.6,120.5 1070.0,120.2 1071.3,95.0 1072.7,111.1 1074.0,95.0 1075.4,102.2 1076.7,95.2 1078.1,113.6 1079.4,121.2 1080.8,118.4 1082.1,107.1 1083.5,103.2 1084.8,159.6 1086.2,112.2 1087.5,95.0 1088.9,96.4 1090.3,95.0 1091.6,123.6 1093.0,108.5 1094.3,95.0 1095.7,101.3 1097.0,95.0 1098.4,103.4 1099.7,95.0 1101.1,107.9 1102.4,105.6 1103.8,95.0 1105.1,103.8 1106.5,95.0 1107.8,95.0 1109.2,103.9 1110.5,95.0 1111.9,95.0 1113.2,95.6 1114.6,95.8 1115.9,98.9 1117.3,95.0 1118.6,106.1 1120.0,95.0 1121.3,104.6 1122.7,112.9 1124.0,106.8 1125.4,118.2 1126.7,108.9 1128.1,96.8 1129.4,97.6 1130.8,102.4 1132.2,95.0 1133.5,111.0 1134.9,95.0 1136.2,102.7 1137.6,95.0 1138.9,124.3 1140.3,112.8 1141.6,107.4 1143.0,95.0 1144.3,102.8 1145.7,100.7 1147.0,110.3 1148.4,135.2 1149.7,104.0 1151.1,95.0 1152.4,95.0 1153.8,95.6 1155.1,97.4 1156.5,95.0 1157.8,112.9 1159.2,112.7 1160.5,104.1 1161.9,132.6 1163.2,129.8 1164.6,142.6 1165.9,134.1 1167.3,135.4 1168.6,127.2 1170.0,133.2"/>
<polyline fill="none" stroke="#0891b2" stroke-width="2" points="90.0,95.0 91.4,161.7 92.7,95.0 94.1,119.3 95.4,95.0 96.8,95.0 98.1,95.0 99.5,109.9 100.8,104.5 102.2,109.7 103.5,108.4 104.9,95.0 106.2,131.6 107.6,247.9 108.9,189.6 110.3,266.5 111.6,261.6 113.0,286.9 114.3,209.8 115.7,236.5 117.0,293.1 118.4,306.7 119.7,272.2 121.1,271.3 122.4,265.9 123.8,251.3 125.1,258.5 126.5,237.0 127.8,231.5 129.2,174.7 130.6,162.8 131.9,129.0 133.3,120.2 134.6,114.7 136.0,109.7 137.3,119.4 138.7,123.7 140.0,107.0 141.4,112.8 142.7,170.2 144.1,136.7 145.4,108.3 146.8,109.6 148.1,105.0 149.5,95.0 150.8,95.0 152.2,115.0 153.5,103.0 154.9,118.0 156.2,111.3 157.6,99.5 158.9,95.0 160.3,124.3 161.6,98.5 163.0,130.2 164.3,150.1 165.7,109.0 167.0,95.0 168.4,95.0 169.7,106.3 171.1,95.0 172.5,122.0 173.8,139.1 175.2,186.5 176.5,166.7 177.9,159.5 179.2,176.0 180.6,214.1 181.9,207.4 183.3,161.5 184.6,150.6 186.0,151.3 187.3,122.8 188.7,160.9 190.0,293.7 191.4,213.0 192.7,221.2 194.1,173.7 195.4,186.9 196.8,206.2 198.1,291.1 199.5,310.6 200.8,311.7 202.2,282.9 203.5,294.6 204.9,219.1 206.2,226.8 207.6,231.8 208.9,240.7 210.3,245.8 211.7,249.0 213.0,270.8 214.4,257.3 215.7,267.2 217.1,260.3 218.4,246.7 219.8,248.7 221.1,223.9 222.5,220.6 223.8,221.7 225.2,226.6 226.5,218.1 227.9,222.2 229.2,245.3 230.6,240.8 231.9,229.3 233.3,232.7 234.6,217.7 236.0,217.2 237.3,207.7 238.7,213.4 240.0,208.2 241.4,204.1 242.7,203.4 244.1,194.2 245.4,193.4 246.8,171.8 248.1,179.9 249.5,159.7 250.9,152.5 252.2,142.3 253.6,138.2 254.9,142.9 256.3,154.3 257.6,167.7 259.0,151.7 260.3,134.8 261.7,142.4 263.0,137.4 264.4,150.8 265.7,147.2 267.1,156.2 268.4,146.7 269.8,169.0 271.1,162.5 272.5,173.6 273.8,190.1 275.2,160.2 276.5,156.3 277.9,139.7 279.2,125.6 280.6,142.0 281.9,103.2 283.3,95.0 284.6,95.0 286.0,96.6 287.3,112.4 288.7,97.7 290.1,95.0 291.4,111.6 292.8,95.0 294.1,97.0 295.5,100.3 296.8,95.8 298.2,95.0 299.5,95.0 300.9,101.6 302.2,95.0 303.6,100.4 304.9,104.6 306.3,96.6 307.6,121.9 309.0,135.1 310.3,147.9 311.7,118.1 313.0,172.4 314.4,148.9 315.7,95.0 317.1,95.0 318.4,95.0 319.8,95.0 321.1,104.2 322.5,126.7 323.8,116.2 325.2,154.4 326.5,95.0 327.9,95.0 329.2,108.9 330.6,102.7 332.0,144.1 333.3,95.0 334.7,103.9 336.0,104.4 337.4,107.9 338.7,99.4 340.1,113.1 341.4,95.0 342.8,100.2 344.1,125.1 345.5,95.0 346.8,95.8 348.2,105.0 349.5,95.0 350.9,104.1 352.2,140.0 353.6,162.1 354.9,104.0 356.3,95.0 357.6,107.8 359.0,100.2 360.3,117.6 361.7,127.2 363.0,107.2 364.4,145.9 365.7,165.2 367.1,135.7 368.4,136.4 369.8,153.8 371.2,151.7 372.5,128.7 373.9,101.4 375.2,95.0 376.6,103.3 377.9,96.5 379.3,95.0 380.6,120.4 382.0,117.7 383.3,104.6 384.7,113.7 386.0,148.0 387.4,125.7 388.7,99.1 390.1,95.9 391.4,95.0 392.8,127.6 394.1,121.6 395.5,140.2 396.8,148.4 398.2,189.9 399.5,158.2 400.9,113.0 402.2,96.4 403.6,98.8 404.9,95.0 406.3,95.0 407.6,104.2 409.0,96.9 410.4,95.0 411.7,106.1 413.1,95.0 414.4,95.0 415.8,95.0 417.1,100.5 418.5,97.6 419.8,117.2 421.2,121.3 422.5,113.4 423.9,124.3 425.2,129.4 426.6,95.0 427.9,116.3 429.3,106.4 430.6,117.7 432.0,116.9 433.3,113.5 434.7,163.2 436.0,163.1 437.4,150.4 438.7,134.0 440.1,152.9 441.4,157.4 442.8,139.5 444.1,161.1 445.5,172.7 446.8,164.2 448.2,123.1 449.5,140.9 450.9,127.4 452.3,132.5 453.6,126.5 455.0,283.3 456.3,245.1 457.7,230.7 459.0,199.5 460.4,207.9 461.7,223.4 463.1,191.6 464.4,177.1 465.8,157.8 467.1,157.1 468.5,166.1 469.8,185.1 471.2,168.5 472.5,164.6 473.9,165.0 475.2,180.9 476.6,169.0 477.9,160.2 479.3,189.7 480.6,191.3 482.0,193.5 483.3,182.0 484.7,210.0 486.0,198.0 487.4,184.8 488.7,182.7 490.1,175.6 491.5,168.4 492.8,161.4 494.2,146.0 495.5,135.1 496.9,139.9 498.2,147.5 499.6,143.0 500.9,118.0 502.3,116.1 503.6,141.8 505.0,132.3 506.3,114.8 507.7,102.2 509.0,108.2 510.4,95.0 511.7,95.9 513.1,112.9 514.4,112.4 515.8,103.3 517.1,108.3 518.5,115.9 519.8,119.7 521.2,126.3 522.5,110.7 523.9,127.2 525.2,133.9 526.6,111.2 527.9,138.9 529.3,157.6 530.7,150.1 532.0,146.5 533.4,181.6 534.7,211.5 536.1,233.3 537.4,253.6 538.8,264.4 540.1,253.5 541.5,278.6 542.8,275.2 544.2,260.1 545.5,253.1 546.9,247.1 548.2,228.1 549.6,233.0 550.9,221.4 552.3,206.6 553.6,207.4 555.0,208.1 556.3,211.5 557.7,200.4 559.0,217.6 560.4,207.3 561.7,203.3 563.1,212.6 564.4,183.2 565.8,185.2 567.1,171.0 568.5,194.2 569.8,160.7 571.2,142.7 572.6,149.7 573.9,162.2 575.3,145.5 576.6,157.2 578.0,149.5 579.3,114.9 580.7,100.3 582.0,105.1 583.4,105.4 584.7,118.3 586.1,121.3 587.4,106.0 588.8,95.0 590.1,99.5 591.5,103.6 592.8,100.6 594.2,97.2 595.5,95.0 596.9,99.4 598.2,97.3 599.6,95.0 600.9,109.5 602.3,95.0 603.6,95.0 605.0,128.6 606.3,102.0 607.7,102.9 609.0,95.0 610.4,95.0 611.8,95.0 613.1,95.0 614.5,123.8 615.8,179.7 617.2,208.4 618.5,176.0 619.9,193.4 621.2,162.4 622.6,151.2 623.9,201.5 625.3,198.9 626.6,218.1 628.0,189.6 629.3,198.9 630.7,204.6 632.0,194.6 633.4,164.8 634.7,169.6 636.1,178.9 637.4,159.0 638.8,158.7 640.1,165.1 641.5,193.2 642.8,167.7 644.2,168.7 645.5,169.5 646.9,172.1 648.2,158.2 649.6,169.2 651.0,165.9 652.3,134.5 653.7,129.1 655.0,138.8 656.4,139.4 657.7,135.8 659.1,129.6 660.4,212.4 661.8,193.2 663.1,250.6 664.5,234.6 665.8,211.4 667.2,256.1 668.5,306.6 669.9,230.1 671.2,284.3 672.6,330.2 673.9,359.5 675.3,362.7 676.6,331.9 678.0,318.9 679.3,316.8 680.7,302.4 682.0,293.5 683.4,289.8 684.7,298.9 686.1,299.0 687.4,281.8 688.8,278.1 690.2,254.5 691.5,249.7 692.9,244.5 694.2,254.3 695.6,240.4 696.9,237.2 698.3,242.9 699.6,242.7 701.0,228.4 702.3,217.7 703.7,202.7 705.0,185.9 706.4,195.3 707.7,170.0 709.1,194.7 710.4,183.6 711.8,188.7 713.1,157.7 714.5,135.7 715.8,106.6 717.2,103.9 718.5,98.3 719.9,145.2 721.2,147.8 722.6,118.6 723.9,132.5 725.3,117.2 726.6,140.7 728.0,137.2 729.3,137.9 730.7,145.3 732.1,157.5 733.4,133.8 734.8,134.6 736.1,141.6 737.5,138.6 738.8,139.3 740.2,127.4 741.5,125.6 742.9,103.0 744.2,95.0 745.6,111.7 746.9,95.0 748.3,95.0 749.6,167.7 751.0,254.1 752.3,263.3 753.7,402.5 755.0,408.7 756.4,333.8 757.7,313.0 759.1,275.2 760.4,273.7 761.8,266.8 763.1,274.3 764.5,268.2 765.8,269.8 767.2,265.9 768.5,289.3 769.9,265.1 771.3,253.1 772.6,246.8 774.0,229.5 775.3,220.0 776.7,201.4 778.0,181.2 779.4,160.6 780.7,192.6 782.1,188.4 783.4,172.9 784.8,184.1 786.1,212.6 787.5,217.6 788.8,229.7 790.2,217.6 791.5,196.0 792.9,212.2 794.2,217.9 795.6,231.5 796.9,206.7 798.3,188.5 799.6,199.0 801.0,192.3 802.3,191.0 803.7,177.9 805.0,177.6 806.4,165.5 807.7,186.1 809.1,182.0 810.5,157.4 811.8,154.6 813.2,127.7 814.5,145.2 815.9,194.7 817.2,237.0 818.6,163.8 819.9,187.9 821.3,198.7 822.6,164.0 824.0,162.9 825.3,149.1 826.7,128.2 828.0,136.6 829.4,136.6 830.7,143.7 832.1,140.2 833.4,99.5 834.8,99.0 836.1,125.1 837.5,95.1 838.8,95.0 840.2,108.9 841.5,171.2 842.9,114.4 844.2,118.1 845.6,120.2 846.9,114.6 848.3,109.0 849.6,96.9 851.0,109.1 852.4,103.8 853.7,123.1 855.1,119.5 856.4,95.0 857.8,95.0 859.1,99.2 860.5,98.7 861.8,95.8 863.2,102.8 864.5,125.7 865.9,170.5 867.2,186.6 868.6,171.6 869.9,168.2 871.3,126.0 872.6,156.7 874.0,140.5 875.3,188.3 876.7,219.9 878.0,174.1 879.4,187.4 880.7,199.4 882.1,180.1 883.4,116.6 884.8,195.0 886.1,161.3 887.5,161.7 888.8,169.2 890.2,171.6 891.6,177.3 892.9,183.3 894.3,199.1 895.6,258.6 897.0,254.1 898.3,195.1 899.7,203.3 901.0,243.6 902.4,254.4 903.7,252.9 905.1,291.1 906.4,295.4 907.8,274.9 909.1,246.2 910.5,248.5 911.8,245.6 913.2,260.8 914.5,262.0 915.9,296.1 917.2,289.4 918.6,317.4 919.9,376.9 921.3,323.9 922.6,353.5 924.0,357.8 925.3,354.6 926.7,345.8 928.0,342.4 929.4,296.3 930.8,303.0 932.1,281.2 933.5,300.5 934.8,300.0 936.2,305.6 937.5,308.7 938.9,290.0 940.2,261.4 941.6,255.0 942.9,261.0 944.3,290.7 945.6,292.1 947.0,316.8 948.3,289.9 949.7,315.4 951.0,313.6 952.4,301.1 953.7,267.3 955.1,263.3 956.4,260.2 957.8,282.4 959.1,273.1 960.5,260.8 961.8,264.7 963.2,277.1 964.5,248.9 965.9,245.3 967.2,216.9 968.6,250.5 969.9,230.8 971.3,213.9 972.7,183.9 974.0,193.6 975.4,215.5 976.7,227.1 978.1,261.7 979.4,256.8 980.8,214.6 982.1,233.8 983.5,229.8 984.8,265.1 986.2,279.1 987.5,266.2 988.9,255.5 990.2,302.7 991.6,308.6 992.9,247.8 994.3,211.4 995.6,199.6 997.0,195.4 998.3,204.0 999.7,162.1 1001.0,151.7 1002.4,142.0 1003.7,153.4 1005.1,159.0 1006.4,125.9 1007.8,135.7 1009.1,105.8 1010.5,107.4 1011.9,95.0 1013.2,95.0 1014.6,105.6 1015.9,116.5 1017.3,98.6 1018.6,101.5 1020.0,111.0 1021.3,165.3 1022.7,159.1 1024.0,169.4 1025.4,117.1 1026.7,99.9 1028.1,101.5 1029.4,117.7 1030.8,95.0 1032.1,95.4 1033.5,104.0 1034.8,95.8 1036.2,99.5 1037.5,95.0 1038.9,131.8 1040.2,164.0 1041.6,213.5 1042.9,151.8 1044.3,103.8 1045.6,115.3 1047.0,135.4 1048.3,109.4 1049.7,95.0 1051.1,100.8 1052.4,105.3 1053.8,95.0 1055.1,95.0 1056.5,97.5 1057.8,121.4 1059.2,95.0 1060.5,129.9 1061.9,98.7 1063.2,95.0 1064.6,95.0 1065.9,155.7 1067.3,122.4 1068.6,137.2 1070.0,156.5 1071.3,97.3 1072.7,114.0 1074.0,95.0 1075.4,100.3 1076.7,99.9 1078.1,154.6 1079.4,178.9 1080.8,189.5 1082.1,180.2 1083.5,188.8 1084.8,246.0 1086.2,194.5 1087.5,177.6 1088.9,158.8 1090.3,149.0 1091.6,180.5 1093.0,166.4 1094.3,154.6 1095.7,146.0 1097.0,133.6 1098.4,141.6 1099.7,131.5 1101.1,133.9 1102.4,133.0 1103.8,102.8 1105.1,121.9 1106.5,127.9 1107.8,118.7 1109.2,125.0 1110.5,113.6 1111.9,95.0 1113.2,95.0 1114.6,95.0 1115.9,103.1 1117.3,95.0 1118.6,136.2 1120.0,95.0 1121.3,117.7 1122.7,114.9 1124.0,108.7 1125.4,141.0 1126.7,137.6 1128.1,107.3 1129.4,95.0 1130.8,117.7 1132.2,95.0 1133.5,106.7 1134.9,95.0 1136.2,95.0 1137.6,95.0 1138.9,146.7 1140.3,121.1 1141.6,123.3 1143.0,97.5 1144.3,164.8 1145.7,174.8 1147.0,211.8 1148.4,263.7 1149.7,207.7 1151.1,145.6 1152.4,102.5 1153.8,102.8 1155.1,108.2 1156.5,103.3 1157.8,139.2 1159.2,136.9 1160.5,112.2 1161.9,201.2 1163.2,158.0 1164.6,213.2 1165.9,204.3 1167.3,214.0 1168.6,215.8 1170.0,242.2"/>
<polyline fill="none" stroke="#64748b" stroke-width="2" points="90.0,95.0 91.4,163.2 92.7,95.0 94.1,119.4 95.4,95.0 96.8,95.0 98.1,95.0 99.5,106.1 100.8,102.0 102.2,101.5 103.5,97.2 104.9,95.0 106.2,130.6 107.6,238.0 108.9,186.2 110.3,257.0 111.6,252.9 113.0,274.3 114.3,205.1 115.7,229.3 117.0,278.2 118.4,304.0 119.7,287.6 121.1,284.4 122.4,288.7 123.8,274.7 125.1,265.3 126.5,242.6 127.8,243.7 129.2,224.8 130.6,225.3 131.9,206.7 133.3,188.6 134.6,184.1 136.0,179.9 137.3,189.6 138.7,194.6 140.0,178.7 141.4,178.2 142.7,229.5 144.1,202.4 145.4,160.8 146.8,155.9 148.1,148.8 149.5,127.9 150.8,107.9 152.2,125.8 153.5,107.1 154.9,123.5 156.2,119.1 157.6,101.0 158.9,95.0 160.3,129.3 161.6,100.3 163.0,132.6 164.3,155.5 165.7,110.2 167.0,95.0 168.4,95.0 169.7,108.3 171.1,95.0 172.5,122.5 173.8,136.7 175.2,186.2 176.5,171.0 177.9,161.2 179.2,179.6 180.6,219.3 181.9,211.5 183.3,165.0 184.6,145.2 186.0,138.5 187.3,113.6 188.7,145.5 190.0,249.5 191.4,169.6 192.7,170.3 194.1,128.1 195.4,141.2 196.8,152.5 198.1,224.5 199.5,251.9 200.8,272.4 202.2,268.5 203.5,279.1 204.9,248.2 206.2,232.2 207.6,236.8 208.9,241.5 210.3,244.3 211.7,249.2 213.0,261.1 214.4,256.3 215.7,268.6 217.1,263.4 218.4,249.8 219.8,254.9 221.1,227.3 222.5,225.3 223.8,226.9 225.2,232.1 226.5,225.1 227.9,229.7 229.2,249.4 230.6,244.6 231.9,233.3 233.3,237.1 234.6,224.5 236.0,224.0 237.3,213.6 238.7,220.1 240.0,218.1 241.4,221.0 242.7,218.6 244.1,213.4 245.4,210.9 246.8,194.7 248.1,199.8 249.5,182.2 250.9,177.5 252.2,165.3 253.6,163.0 254.9,165.2 256.3,169.9 257.6,184.8 259.0,168.8 260.3,154.4 261.7,163.0 263.0,162.6 264.4,157.0 265.7,150.9 267.1,160.7 268.4,152.0 269.8,173.1 271.1,166.4 272.5,170.7 273.8,183.6 275.2,161.7 276.5,158.2 277.9,140.8 279.2,126.1 280.6,140.1 281.9,103.0 283.3,95.0 284.6,95.0 286.0,96.6 287.3,111.7 288.7,97.8 290.1,95.0 291.4,112.6 292.8,95.0 294.1,97.0 295.5,100.3 296.8,96.1 298.2,95.0 299.5,95.0 300.9,111.9 302.2,97.3 303.6,98.9 304.9,103.8 306.3,95.1 307.6,121.8 309.0,136.1 310.3,147.4 311.7,117.9 313.0,172.8 314.4,148.9 315.7,95.0 317.1,95.0 318.4,95.0 319.8,95.0 321.1,103.7 322.5,125.7 323.8,116.0 325.2,155.2 326.5,95.0 327.9,95.0 329.2,109.1 330.6,103.2 332.0,144.6 333.3,95.0 334.7,104.1 336.0,104.4 337.4,109.2 338.7,103.2 340.1,113.2 341.4,95.0 342.8,102.4 344.1,128.0 345.5,95.0 346.8,95.0 348.2,105.7 349.5,95.0 350.9,104.0 352.2,140.7 353.6,159.9 354.9,135.3 356.3,130.8 357.6,133.6 359.0,110.1 360.3,127.5 361.7,137.1 363.0,117.5 364.4,154.6 365.7,174.6 367.1,144.8 368.4,144.7 369.8,146.7 371.2,137.4 372.5,131.2 373.9,113.8 375.2,95.0 376.6,103.3 377.9,96.3 379.3,95.0 380.6,119.8 382.0,116.6 383.3,103.4 384.7,112.4 386.0,146.7 387.4,124.3 388.7,97.6 390.1,95.9 391.4,95.0 392.8,120.1 394.1,115.9 395.5,137.7 396.8,143.9 398.2,157.8 399.5,144.7 400.9,126.9 402.2,113.8 403.6,111.7 404.9,101.4 406.3,95.0 407.6,102.7 409.0,99.8 410.4,97.7 411.7,105.0 413.1,95.0 414.4,95.0 415.8,95.0 417.1,97.2 418.5,100.5 419.8,123.4 421.2,131.5 422.5,122.5 423.9,134.3 425.2,134.8 426.6,95.0 427.9,113.2 429.3,106.5 430.6,109.2 432.0,105.7 433.3,109.5 434.7,145.8 436.0,154.4 437.4,151.2 438.7,130.4 440.1,157.3 441.4,159.0 442.8,152.6 444.1,162.5 445.5,165.2 446.8,157.5 448.2,120.0 449.5,121.2 450.9,106.8 452.3,115.1 453.6,105.1 455.0,213.0 456.3,174.1 457.7,175.5 459.0,184.7 460.4,164.1 461.7,154.9 463.1,156.7 464.4,138.5 465.8,137.1 467.1,158.5 468.5,161.5 469.8,177.6 471.2,163.4 472.5,158.7 473.9,158.1 475.2,167.4 476.6,160.0 477.9,159.3 479.3,179.0 480.6,180.3 482.0,174.0 483.3,159.7 484.7,164.5 486.0,162.7 487.4,149.9 488.7,154.3 490.1,145.5 491.5,142.0 492.8,134.1 494.2,119.7 495.5,106.6 496.9,114.6 498.2,123.1 499.6,115.2 500.9,95.0 502.3,99.6 503.6,126.6 505.0,121.5 506.3,102.5 507.7,96.5 509.0,110.2 510.4,95.0 511.7,95.0 513.1,112.7 514.4,114.1 515.8,105.8 517.1,111.6 518.5,118.4 519.8,123.2 521.2,129.9 522.5,117.5 523.9,137.9 525.2,143.1 526.6,120.5 527.9,156.6 529.3,176.2 530.7,162.4 532.0,155.0 533.4,179.4 534.7,209.6 536.1,232.4 537.4,252.5 538.8,263.9 540.1,255.6 541.5,282.0 542.8,278.1 544.2,262.9 545.5,252.2 546.9,242.9 548.2,236.2 549.6,232.5 550.9,221.0 552.3,206.2 553.6,207.3 555.0,207.5 556.3,206.6 557.7,191.0 559.0,207.8 560.4,199.8 561.7,202.5 563.1,208.5 564.4,168.3 565.8,168.5 567.1,153.7 568.5,176.3 569.8,142.9 571.2,124.8 572.6,132.3 573.9,145.0 575.3,128.3 576.6,146.1 578.0,139.4 579.3,115.0 580.7,108.7 582.0,109.7 583.4,110.0 584.7,122.9 586.1,125.9 587.4,110.6 588.8,95.8 590.1,99.5 591.5,103.6 592.8,100.8 594.2,95.8 595.5,95.0 596.9,98.9 598.2,95.0 599.6,95.0 600.9,109.5 602.3,95.0 603.6,95.0 605.0,129.9 606.3,103.5 607.7,103.1 609.0,95.0 610.4,95.0 611.8,95.0 613.1,95.0 614.5,123.8 615.8,179.8 617.2,208.4 618.5,175.7 619.9,193.0 621.2,160.8 622.6,149.7 623.9,199.0 625.3,196.9 626.6,216.5 628.0,187.8 629.3,197.1 630.7,202.9 632.0,193.6 633.4,163.8 634.7,169.3 636.1,180.0 637.4,159.9 638.8,160.3 640.1,167.3 641.5,195.7 642.8,170.3 644.2,171.4 645.5,172.1 646.9,174.4 648.2,168.2 649.6,172.4 651.0,168.6 652.3,149.7 653.7,150.7 655.0,160.4 656.4,161.0 657.7,157.4 659.1,157.2 660.4,242.0 661.8,219.7 663.1,276.0 664.5,271.3 665.8,268.2 667.2,288.8 668.5,318.0 669.9,278.7 671.2,289.4 672.6,302.3 673.9,313.9 675.3,299.8 676.6,297.3 678.0,297.9 679.3,292.3 680.7,282.7 682.0,274.5 683.4,268.9 684.7,278.8 686.1,280.3 687.4,262.7 688.8,258.9 690.2,235.6 691.5,234.5 692.9,230.0 694.2,240.4 695.6,226.8 696.9,225.0 698.3,234.2 699.6,233.5 701.0,225.6 702.3,222.1 703.7,211.3 705.0,194.7 706.4,202.5 707.7,175.1 709.1,194.3 710.4,186.6 711.8,191.1 713.1,162.9 714.5,130.7 715.8,102.6 717.2,101.1 718.5,96.8 719.9,147.1 721.2,150.4 722.6,120.1 723.9,136.2 725.3,119.3 726.6,145.6 728.0,144.1 729.3,144.0 730.7,151.5 732.1,164.8 733.4,141.8 734.8,144.6 736.1,151.3 737.5,150.8 738.8,146.0 740.2,134.1 741.5,128.2 742.9,108.2 744.2,95.4 745.6,115.1 746.9,95.0 748.3,95.9 749.6,169.6 751.0,264.4 752.3,236.7 753.7,344.4 755.0,324.0 756.4,283.2 757.7,260.2 759.1,228.4 760.4,226.6 761.8,227.1 763.1,235.9 764.5,228.2 765.8,234.8 767.2,233.1 768.5,268.3 769.9,236.1 771.3,227.0 772.6,216.0 774.0,204.3 775.3,195.2 776.7,176.9 778.0,148.6 779.4,129.4 780.7,165.9 782.1,161.2 783.4,146.6 784.8,150.8 786.1,165.1 787.5,168.6 788.8,180.8 790.2,175.1 791.5,148.9 792.9,167.4 794.2,173.1 795.6,189.9 796.9,185.2 798.3,171.1 799.6,182.6 801.0,176.7 802.3,174.9 803.7,161.7 805.0,161.4 806.4,151.2 807.7,148.8 809.1,143.4 810.5,117.1 811.8,111.6 813.2,95.5 814.5,114.8 815.9,170.1 817.2,207.0 818.6,132.0 819.9,156.7 821.3,167.4 822.6,128.8 824.0,127.8 825.3,117.4 826.7,97.3 828.0,120.0 829.4,127.3 830.7,129.8 832.1,116.9 833.4,95.0 834.8,96.9 836.1,114.5 837.5,95.0 838.8,95.0 840.2,107.7 841.5,167.2 842.9,117.5 844.2,122.1 845.6,121.7 846.9,117.1 848.3,110.1 849.6,96.7 851.0,109.2 852.4,104.6 853.7,123.6 855.1,119.0 856.4,95.0 857.8,95.0 859.1,99.3 860.5,98.8 861.8,95.8 863.2,102.8 864.5,125.7 865.9,170.5 867.2,187.0 868.6,173.6 869.9,169.6 871.3,128.2 872.6,159.0 874.0,143.3 875.3,192.6 876.7,224.8 878.0,179.2 879.4,192.7 880.7,204.8 882.1,185.2 883.4,118.4 884.8,200.1 886.1,169.8 887.5,170.8 888.8,177.9 890.2,179.7 891.6,185.9 892.9,192.0 894.3,210.1 895.6,218.8 897.0,213.4 898.3,184.5 899.7,195.6 901.0,225.7 902.4,236.8 903.7,236.8 905.1,275.1 906.4,278.0 907.8,263.7 909.1,235.8 910.5,237.3 911.8,240.2 913.2,256.9 914.5,252.9 915.9,285.5 917.2,286.7 918.6,309.6 919.9,365.3 921.3,312.1 922.6,339.2 924.0,349.5 925.3,352.4 926.7,343.7 928.0,338.3 929.4,291.0 930.8,298.3 932.1,273.6 933.5,291.6 934.8,289.9 936.2,297.3 937.5,298.3 938.9,282.3 940.2,249.6 941.6,244.4 942.9,251.6 944.3,280.8 945.6,293.7 947.0,309.7 948.3,293.2 949.7,278.1 951.0,270.0 952.4,265.6 953.7,244.2 955.1,242.6 956.4,236.8 957.8,260.6 959.1,253.3 960.5,238.1 961.8,238.6 963.2,249.8 964.5,239.5 965.9,240.0 967.2,230.6 968.6,242.6 969.9,245.9 971.3,227.9 972.7,196.0 974.0,205.5 975.4,225.9 976.7,238.3 978.1,276.1 979.4,273.3 980.8,229.8 982.1,249.8 983.5,246.8 984.8,282.8 986.2,296.4 987.5,281.0 988.9,267.9 990.2,305.9 991.6,310.6 992.9,266.3 994.3,239.0 995.6,224.8 997.0,214.4 998.3,222.9 999.7,174.4 1001.0,163.3 1002.4,153.7 1003.7,166.4 1005.1,173.7 1006.4,139.8 1007.8,151.2 1009.1,122.3 1010.5,119.4 1011.9,100.3 1013.2,95.0 1014.6,105.1 1015.9,118.8 1017.3,100.5 1018.6,100.3 1020.0,109.8 1021.3,164.1 1022.7,157.9 1024.0,168.3 1025.4,115.9 1026.7,98.7 1028.1,101.5 1029.4,117.7 1030.8,97.7 1032.1,96.4 1033.5,103.3 1034.8,96.3 1036.2,95.4 1037.5,95.0 1038.9,128.7 1040.2,162.8 1041.6,188.4 1042.9,142.9 1044.3,109.4 1045.6,114.9 1047.0,153.9 1048.3,133.4 1049.7,99.5 1051.1,96.4 1052.4,106.1 1053.8,95.0 1055.1,95.0 1056.5,105.8 1057.8,130.3 1059.2,95.0 1060.5,138.4 1061.9,100.0 1063.2,95.0 1064.6,95.0 1065.9,158.6 1067.3,123.0 1068.6,144.4 1070.0,159.8 1071.3,101.9 1072.7,116.0 1074.0,95.0 1075.4,101.5 1076.7,100.9 1078.1,157.0 1079.4,164.9 1080.8,161.4 1082.1,150.6 1083.5,146.4 1084.8,195.6 1086.2,147.3 1087.5,129.2 1088.9,111.1 1090.3,105.9 1091.6,147.4 1093.0,133.1 1094.3,120.8 1095.7,110.8 1097.0,99.4 1098.4,101.4 1099.7,99.2 1101.1,110.8 1102.4,111.3 1103.8,95.0 1105.1,105.2 1106.5,97.4 1107.8,95.0 1109.2,101.1 1110.5,95.0 1111.9,95.0 1113.2,95.0 1114.6,95.0 1115.9,103.1 1117.3,95.0 1118.6,136.4 1120.0,95.0 1121.3,116.0 1122.7,112.3 1124.0,107.0 1125.4,140.1 1126.7,136.0 1128.1,105.4 1129.4,95.0 1130.8,120.1 1132.2,95.0 1133.5,107.8 1134.9,95.0 1136.2,95.0 1137.6,95.0 1138.9,148.1 1140.3,125.3 1141.6,128.4 1143.0,98.4 1144.3,155.1 1145.7,145.5 1147.0,181.4 1148.4,230.9 1149.7,172.6 1151.1,119.2 1152.4,101.3 1153.8,101.5 1155.1,102.2 1156.5,103.3 1157.8,139.7 1159.2,137.0 1160.5,106.4 1161.9,183.2 1163.2,131.6 1164.6,180.9 1165.9,166.9 1167.3,173.8 1168.6,176.4 1170.0,203.8"/>
<text x="90.0" y="650" text-anchor="middle" font-family="Arial" font-size="13" fill="#475569">2010-02</text>
<text x="304.9" y="650" text-anchor="middle" font-family="Arial" font-size="13" fill="#475569">2013-05</text>
<text x="521.2" y="650" text-anchor="middle" font-family="Arial" font-size="13" fill="#475569">2016-08</text>
<text x="737.5" y="650" text-anchor="middle" font-family="Arial" font-size="13" fill="#475569">2019-12</text>
<text x="953.7" y="650" text-anchor="middle" font-family="Arial" font-size="13" fill="#475569">2023-04</text>
<text x="1170.0" y="650" text-anchor="middle" font-family="Arial" font-size="13" fill="#475569">2026-07</text>
<line x1="90" y1="675" x2="112" y2="675" stroke="#2563eb" stroke-width="4"/>
<text x="118" y="680" font-family="Arial" font-size="12">SPY Buy &amp; Hold</text>
<line x1="245" y1="675" x2="267" y2="675" stroke="#ef4444" stroke-width="4"/>
<text x="273" y="680" font-family="Arial" font-size="12">Equal Weight</text>
<line x1="400" y1="675" x2="422" y2="675" stroke="#16a34a" stroke-width="4"/>
<text x="428" y="680" font-family="Arial" font-size="12">Inverse Volatility</text>
<line x1="555" y1="675" x2="577" y2="675" stroke="#9333ea" stroke-width="4"/>
<text x="583" y="680" font-family="Arial" font-size="12">MPT Minimum Variance</text>
<line x1="710" y1="675" x2="732" y2="675" stroke="#ea580c" stroke-width="4"/>
<text x="738" y="680" font-family="Arial" font-size="12">MPT Maximum Sharpe</text>
<line x1="865" y1="675" x2="887" y2="675" stroke="#0891b2" stroke-width="4"/>
<text x="893" y="680" font-family="Arial" font-size="12">Black-Litterman Momentum</text>
<line x1="1020" y1="675" x2="1042" y2="675" stroke="#64748b" stroke-width="4"/>
<text x="1048" y="680" font-family="Arial" font-size="12">Regime-Aware Black-Litterman</text>
</svg>